<svg width="378" height="344" viewBox="0 0 378 344" fill="none" xmlns="http://www.w3.org/2000/svg">
<path d="M15.9961 193.748H10.6055C10.625 194.695 10.8691 195.608 11.3379 196.487C11.8066 197.356 12.5098 198.133 13.4473 198.816C14.3945 199.5 15.5566 200.018 16.9336 200.369L15.2051 203.24C13.7207 202.869 12.4414 202.288 11.3672 201.497C10.293 200.696 9.44336 199.739 8.81836 198.626C8.22266 199.896 7.38281 200.989 6.29883 201.907C5.21484 202.825 3.90625 203.504 2.37305 203.943L0.615234 201.043C1.98242 200.643 3.13477 200.066 4.07227 199.314C5.00977 198.562 5.70801 197.708 6.16699 196.751C6.63574 195.784 6.875 194.783 6.88477 193.748H1.52344V190.818H6.88477V187.918H10.6641V190.818H15.9961V193.748ZM4.98047 209.598C4.98047 208.543 5.34668 207.645 6.0791 206.902C6.82129 206.15 7.88086 205.579 9.25781 205.188C10.6348 204.788 12.2656 204.588 14.1504 204.588C16.0449 204.588 17.6807 204.788 19.0576 205.188C20.4346 205.579 21.4941 206.15 22.2363 206.902C22.9785 207.645 23.3496 208.543 23.3496 209.598C23.3496 210.662 22.9785 211.575 22.2363 212.337C21.4941 213.108 20.4297 213.694 19.043 214.095C17.666 214.495 16.0352 214.695 14.1504 214.695C12.2754 214.695 10.6494 214.495 9.27246 214.095C7.89551 213.694 6.83594 213.108 6.09375 212.337C5.35156 211.575 4.98047 210.662 4.98047 209.598ZM8.70117 209.598C8.70117 210.33 9.16504 210.892 10.0928 211.282C11.0303 211.663 12.3828 211.854 14.1504 211.854C15.9473 211.854 17.3047 211.663 18.2227 211.282C19.1504 210.892 19.6191 210.33 19.6289 209.598C19.6191 208.885 19.1553 208.353 18.2373 208.001C17.3193 207.64 15.957 207.459 14.1504 207.459C12.373 207.459 11.0205 207.64 10.0928 208.001C9.16504 208.362 8.70117 208.895 8.70117 209.598ZM15.2051 195.184H19.541V188.035H23.2617V204.148H19.541V198.172H15.2051V195.184ZM51.123 211.502H26.7188V208.514H36.9141V202.479H40.6348V208.514H51.123V211.502ZM27.3047 200.223C29.2383 199.92 30.918 199.319 32.3438 198.421C33.7793 197.522 34.873 196.458 35.625 195.228C36.377 193.997 36.7578 192.742 36.7676 191.463V189.559H40.752V191.463C40.7422 192.752 41.1133 194.012 41.8652 195.242C42.627 196.473 43.7305 197.537 45.1758 198.436C46.6211 199.324 48.3203 199.92 50.2734 200.223L48.6914 203.328C46.3867 202.908 44.3799 202.112 42.6709 200.94C40.9619 199.769 39.6582 198.338 38.7598 196.648C37.8711 198.338 36.5723 199.773 34.8633 200.955C33.1641 202.127 31.1719 202.918 28.8867 203.328L27.3047 200.223ZM75.1172 207.664H71.3965V198.934H64.7754V196.004H71.3965V193.953H64.7754V191.023H71.3965V188.064H75.1172V207.664ZM54.1406 189.734H57.832V201.131C59.5801 201.111 61.2305 201.038 62.7832 200.911C64.3359 200.774 65.8984 200.564 67.4707 200.281L67.8516 203.299C66.0059 203.65 64.1846 203.89 62.3877 204.017C60.6006 204.134 58.5645 204.197 56.2793 204.207H54.1406V189.734ZM57.3926 205.906H61.1426V211.238H75.7617V214.227H57.3926V205.906ZM107.871 214.402H89.6191V205.379H92.6367V202.552C90.791 202.62 88.5645 202.654 85.957 202.654L85.5176 199.637H87.4512C90.3809 199.637 93.0908 199.593 95.5811 199.505C98.0811 199.407 100.449 199.217 102.686 198.934L102.861 201.57C100.879 201.912 98.7305 202.171 96.416 202.347V205.379H107.871V214.402ZM86.4258 195.682C87.8027 195.408 88.9551 194.983 89.8828 194.407C90.8105 193.821 91.499 193.143 91.9482 192.371C92.3975 191.6 92.627 190.779 92.6367 189.91V188.826H96.4746V189.91C96.4648 190.721 96.6797 191.482 97.1191 192.195C97.5684 192.908 98.2422 193.533 99.1406 194.07C100.049 194.607 101.172 195.018 102.51 195.301L100.898 198.055C99.4141 197.752 98.1396 197.259 97.0752 196.575C96.0205 195.892 95.1904 195.052 94.585 194.056C93.999 195.149 93.1592 196.082 92.0654 196.854C90.9814 197.625 89.6582 198.191 88.0957 198.553L86.4258 195.682ZM104.18 211.414V208.338H93.3398V211.414H104.18ZM104.15 188.064H107.871V204.207H104.15V188.064ZM133.916 214.754H130.225V200.457H125.537V197.439H130.225V188.035H133.916V214.754ZM112.646 190.262H125.098V193.279H116.367V197.703H124.131V200.633H116.367V205.672C118.379 205.652 120.151 205.599 121.685 205.511C123.228 205.413 124.775 205.242 126.328 204.998L126.709 207.986C124.873 208.26 123.042 208.45 121.216 208.558C119.39 208.655 117.236 208.709 114.756 208.719H112.646V190.262Z" fill="white"/>
<path d="M14.6484 254.441C14.6631 261.561 10.3418 266.438 2.43164 268.621L0.791016 265.34C6.38672 263.86 9.47754 261.092 10.1221 257.781H2.28516V254.441H14.6484ZM5.53711 279.49V268.943H23.4668V279.49H5.53711ZM9.66797 276.209H19.2773V272.225H9.66797V276.209ZM14.8535 262.586V259.158H19.2773V252.947H23.4668V267.889H19.2773V262.586H14.8535ZM35.4199 257.4C35.4053 260.315 36.665 263.128 40.0781 264.607V253.357H43.9746V259.334H45.791V252.947H49.8047V269.236H45.791V262.762H43.9746V269.119H40.0781V264.988L38.0566 267.918C35.8594 267.039 34.3506 265.501 33.3984 263.597C32.4316 265.809 30.791 267.625 28.3594 268.621L26.1035 265.369C29.9854 263.729 31.2891 260.433 31.2891 257.4V254.471H35.4199V257.4ZM31.084 273.689V270.32H49.8047V279.812H45.5859V273.689H31.084Z" fill="white"/>
<path d="M240.611 275V253.789H255.289V257.861H245.592V262.344H254.527V266.416H245.592V270.928H255.318V275H240.611ZM262.643 259.092L265.338 264.395L268.092 259.092H273.102L268.619 267.031L273.248 275H268.297L265.338 269.668L262.438 275H257.398L262.057 267.031L257.633 259.092H262.643ZM284.234 259.092V262.725H281.334V270.02C281.349 271.016 281.847 271.323 282.682 271.338C283.092 271.367 283.883 271.323 284.439 271.279V275.059C283.956 275.132 283.136 275.22 281.979 275.234C278.478 275.22 276.383 273.784 276.412 270.576V262.725H274.273V259.092H276.412V255.283H281.334V259.092H284.234ZM286.783 275V259.092H291.588V261.963H291.734C292.32 259.883 293.727 258.872 295.484 258.857C295.938 258.872 296.48 258.945 296.891 259.033V263.34C296.422 263.193 295.528 263.091 294.928 263.105C293.082 263.091 291.72 264.38 291.734 266.299V275H286.783ZM297.564 270.576C297.55 267.046 300.289 265.786 303.453 265.596C304.61 265.522 306.588 265.449 307.262 265.42V264.131C307.262 263.018 306.441 262.388 305.094 262.402C303.79 262.388 302.94 262.974 302.75 264.014H298.15C298.37 261.201 300.743 258.887 305.211 258.887C309.137 258.887 312.198 260.747 312.213 264.189V275H307.555V272.773H307.438C306.573 274.385 305.035 275.278 302.809 275.293C299.762 275.278 297.55 273.726 297.564 270.576ZM302.252 270.371C302.237 271.44 303.102 272.012 304.303 272.012C305.987 272.012 307.306 270.913 307.291 269.346V268.32C306.69 268.335 305.021 268.423 304.273 268.496C303.028 268.628 302.237 269.316 302.252 270.371ZM315.26 275V253.789H324.02C328.78 253.789 331.227 255.957 331.227 259.18C331.227 261.597 329.586 263.267 327.271 263.75V263.955C329.82 264.072 332.047 266.006 332.047 269.082C332.047 272.495 329.396 275 324.693 275H315.26ZM320.24 270.957H323.521C325.792 270.957 326.832 270.034 326.832 268.525C326.832 266.855 325.602 265.786 323.609 265.801H320.24V270.957ZM320.24 262.549H323.199C324.898 262.534 326.129 261.641 326.129 260.117C326.129 258.682 325.03 257.773 323.258 257.773H320.24V262.549ZM341.861 275.293C336.896 275.293 333.863 271.997 333.863 267.09C333.863 262.183 336.896 258.887 341.861 258.887C346.842 258.887 349.859 262.183 349.859 267.09C349.859 271.997 346.842 275.293 341.861 275.293ZM338.902 267.061C338.888 269.727 339.942 271.558 341.891 271.572C343.78 271.558 344.835 269.727 344.82 267.061C344.835 264.409 343.78 262.563 341.891 262.549C339.942 262.563 338.888 264.409 338.902 267.061ZM357.359 253.789V275H352.408V253.789H357.359ZM366.354 275.234C362.809 275.234 359.967 272.451 359.967 267.061C359.967 261.479 362.97 258.887 366.324 258.887C368.873 258.887 370.235 260.381 370.836 261.816H370.953V253.789H375.875V275H370.982V272.422H370.836C370.191 273.872 368.785 275.234 366.354 275.234ZM365.035 267.031C365.035 269.653 366.104 271.367 368.023 271.367C369.942 271.367 371.056 269.668 371.041 267.031C371.056 264.395 369.942 262.754 368.023 262.754C366.09 262.754 365.035 264.438 365.035 267.031Z" fill="white"/>
<path d="M240.945 214V192.789H249.383C254.056 192.789 256.429 195.045 256.414 198.238C256.429 200.729 254.788 202.296 252.605 202.779V202.984C254.993 203.102 257.249 205.006 257.264 208.141C257.249 211.51 254.729 214 249.939 214H240.945ZM245.34 210.367H249.061C251.609 210.382 252.708 209.327 252.693 207.73C252.708 205.943 251.346 204.684 249.178 204.684H245.34V210.367ZM245.34 201.666H248.738C250.584 201.681 251.976 200.641 251.961 198.941C251.976 197.403 250.833 196.363 248.826 196.363H245.34V201.666ZM267.107 214.322C262.303 214.308 259.3 211.012 259.314 206.09C259.3 201.183 262.303 197.887 267.107 197.887C271.927 197.887 274.915 201.183 274.93 206.09C274.915 211.012 271.927 214.308 267.107 214.322ZM263.709 206.09C263.709 208.873 264.866 210.938 267.137 210.953C269.349 210.938 270.521 208.873 270.506 206.09C270.521 203.292 269.349 201.197 267.137 201.197C264.866 201.197 263.709 203.292 263.709 206.09ZM281.99 192.789V214H277.654V192.789H281.99ZM291.219 214.264C287.586 214.264 284.744 211.378 284.744 206.061C284.744 200.611 287.703 197.887 291.219 197.887C293.885 197.887 295.159 199.469 295.73 200.758H295.877V192.789H300.213V214H295.936V211.451H295.73C295.13 212.77 293.812 214.264 291.219 214.264ZM289.197 206.031C289.183 208.844 290.369 210.792 292.566 210.807C294.734 210.792 295.965 208.902 295.965 206.031C295.965 203.175 294.749 201.344 292.566 201.344C290.354 201.344 289.183 203.263 289.197 206.031Z" fill="white"/>
<path d="M23.49 331.23L18.87 330.54C19.53 326.34 20.01 321.54 20.04 318.84H3.39V314.58H24.75V317.16C24.75 321.42 24.27 326.52 23.49 331.23ZM14.22 324.78V334.8H27.54V339.06H0.9V334.8H9.54V324.78H14.22ZM54.1273 333.27H49.4173V312.69H54.1273V333.27ZM45.3673 328.71H30.4273V313.89H45.3673V328.71ZM34.9573 317.97V324.63H40.8373V317.97H34.9573ZM54.9973 340.86H34.4773V331.5H39.1573V336.63H54.9973V340.86Z" fill="white"/>
<path d="M257.093 323.36V313.52H261.803V338.18H257.093V327.65H245.873V338.18H241.163V313.52H245.873V323.36H257.093ZM282.147 328.28V330.8H269.877C270.207 333.32 271.827 334.49 273.687 334.49C275.487 334.49 276.927 333.74 277.557 332.21L281.847 333.47C280.827 336.83 277.647 338.63 273.687 338.63C269.067 338.63 265.257 335.69 265.257 329.87V328.25C265.257 322.46 269.067 319.52 273.687 319.52C278.337 319.52 282.147 322.46 282.147 328.28ZM269.937 326.96H277.527C277.527 325.19 275.787 323.66 273.687 323.66C271.917 323.66 270.387 324.71 269.937 326.96ZM292.934 319.52C297.194 319.52 300.554 322.1 300.554 326.6V338.18H296.204L295.994 335.99C295.064 337.67 293.384 338.63 291.224 338.63H290.114C286.934 338.63 284.414 336.2 284.414 332.66C284.414 329.45 286.664 327.02 291.044 327.02H295.904V326.75C295.904 325.16 294.884 323.81 292.604 323.81C291.074 323.81 289.964 324.5 289.274 325.76L285.074 323.99C286.484 321.47 289.424 319.52 292.934 319.52ZM291.134 334.31H292.274C293.954 334.31 295.574 333.44 295.904 331.82V331.01H291.134C289.904 331.01 289.064 331.64 289.064 332.69C289.064 333.71 289.904 334.31 291.134 334.31ZM311.032 332.63L315.142 319.97H320.152L313.552 338.18H308.512L301.912 319.97H306.952L311.032 332.63ZM327.23 337.34L320.75 319.97H325.67L329.69 332L333.71 319.97H338.63L331.7 338.69C330.41 342.2 328.61 343.73 326.18 343.73C324.26 343.73 322.76 343.46 321.53 343.01L322.58 339.11C323.42 339.38 324.29 339.56 325.25 339.56C326.09 339.56 326.78 339.17 327.08 337.94L327.23 337.34Z" fill="white"/>
<path d="M10.2539 133.342C10.2539 136.667 12.4072 139.816 16.4941 141.105L14.7363 143.654C11.8799 142.688 9.8291 140.754 8.67188 138.293C7.5293 141.105 5.39062 143.317 2.34375 144.387L0.585938 141.838C4.84863 140.358 6.9873 136.828 7.00195 133.049V130.529H10.2539V133.342ZM4.18945 150.539C4.18945 147.404 7.63184 145.544 13.1543 145.559C18.6328 145.544 22.0166 147.404 22.0312 150.539C22.0166 153.747 18.6328 155.578 13.1543 155.578C7.63184 155.578 4.18945 153.747 4.18945 150.539ZM7.44141 150.539C7.44141 152.18 9.52148 153 13.1543 153C16.7725 153 18.8086 152.18 18.8086 150.539C18.8086 148.986 16.7725 148.107 13.1543 148.107C9.52148 148.107 7.44141 148.986 7.44141 150.539ZM18.5156 144.973V129.123H21.7676V135.568H25.459V138.264H21.7676V144.973H18.5156ZM35.0684 136.066C35.083 140.344 36.5479 144.797 40.1367 147.053L38.3496 149.543C35.9619 148.107 34.4092 145.646 33.5303 142.761C32.5781 145.939 30.8789 148.635 28.3887 150.158L26.3672 147.727C30.2197 145.397 31.9189 140.725 31.9336 136.213V131.467H35.0684V136.066ZM37.2949 140.93V138.234H41.0742V129.592H44.1504V154.318H41.0742V140.93H37.2949ZM46.5234 155.607V129.123H49.6582V155.607H46.5234ZM84.0527 149.748V152.414H59.8535V149.748H70.2832V144.592H62.5195V130.881H65.7715V135.217H78.0469V130.881H81.2988V144.592H73.5059V149.748H84.0527ZM65.7715 141.955H78.0469V137.824H65.7715V141.955ZM107.9 129.123V155.607H104.619V129.123H107.9ZM85.957 148.312C92.9004 145.017 96.0938 140.534 96.6797 134.514H87.3047V131.936H99.9902C99.9902 139.816 96.9287 146.511 87.6562 150.92L85.957 148.312Z" fill="white"/>
<path d="M252.506 137.619C252.315 135.788 250.777 134.733 248.492 134.748C246.075 134.733 244.64 135.905 244.625 137.502C244.61 139.289 246.5 140.021 248.258 140.432L250.25 140.959C253.414 141.691 256.461 143.361 256.461 147.053C256.461 150.773 253.517 153.322 248.434 153.322C243.497 153.322 240.362 150.949 240.201 146.76H243.951C244.127 148.972 245.987 150.056 248.404 150.07C250.909 150.056 252.638 148.84 252.652 147.023C252.638 145.354 251.114 144.65 248.814 144.064L246.412 143.449C242.926 142.541 240.758 140.783 240.758 137.736C240.758 133.986 244.083 131.496 248.551 131.496C253.048 131.496 256.109 134.03 256.168 137.619H252.506ZM266.51 153.322C261.72 153.322 258.775 150.129 258.775 145.148C258.775 140.227 261.764 136.887 266.305 136.887C270.201 136.887 273.57 139.333 273.57 144.914V146.086H262.467C262.525 148.796 264.122 150.407 266.539 150.393C268.18 150.407 269.278 149.704 269.762 148.752H273.424C272.75 151.506 270.201 153.322 266.51 153.322ZM262.481 143.537H269.996C269.981 141.369 268.517 139.787 266.363 139.787C264.122 139.787 262.613 141.516 262.481 143.537ZM276.471 153V137.092H280.045V139.787H280.25C280.909 137.971 282.506 136.887 284.615 136.887C286.769 136.887 288.321 137.985 288.922 139.787H289.098C289.786 138.029 291.559 136.887 293.873 136.887C296.788 136.887 298.839 138.762 298.824 142.307V153H295.104V142.893C295.104 140.915 293.902 140.021 292.379 140.021C290.548 140.021 289.479 141.267 289.479 143.068V153H285.846V142.746C285.831 141.091 284.747 140.021 283.15 140.021C281.539 140.021 280.221 141.354 280.221 143.332V153H276.471ZM302.398 153V137.092H306.148V153H302.398ZM302.135 132.785C302.135 131.672 303.116 130.764 304.303 130.764C305.489 130.764 306.471 131.672 306.471 132.785C306.471 133.913 305.489 134.821 304.303 134.836C303.116 134.821 302.135 133.913 302.135 132.785ZM309.898 153V131.789H318.014C322.613 131.789 324.884 134.133 324.898 137.297C324.884 139.875 323.258 141.311 321.178 141.809V142.014C323.434 142.131 325.719 144.006 325.719 147.229C325.719 150.524 323.331 153 318.482 153H309.898ZM313.707 149.807H317.896C320.68 149.807 321.837 148.62 321.852 146.936C321.837 145.031 320.357 143.581 317.984 143.566H313.707V149.807ZM313.707 140.812H317.545C319.552 140.812 321.075 139.655 321.09 137.766C321.075 136.14 319.903 134.953 317.633 134.953H313.707V140.812ZM335.592 153.322C330.948 153.322 327.975 150.026 327.975 145.119C327.975 140.168 330.948 136.887 335.592 136.887C340.25 136.887 343.224 140.168 343.209 145.119C343.224 150.026 340.25 153.322 335.592 153.322ZM331.754 145.09C331.754 148.005 333.028 150.334 335.621 150.334C338.17 150.334 339.444 148.005 339.43 145.09C339.444 142.175 338.17 139.831 335.621 139.846C333.028 139.831 331.754 142.175 331.754 145.09ZM349.859 131.789V153H346.109V131.789H349.859ZM359.352 153.293C355.616 153.278 352.789 150.29 352.789 145.061C352.789 139.758 355.689 136.887 359.381 136.887C362.179 136.887 363.351 138.571 363.922 139.699H364.068V131.789H367.789V153H364.127V150.48H363.922C363.321 151.652 362.105 153.278 359.352 153.293ZM356.598 145.031C356.598 148.034 357.916 150.217 360.377 150.217C362.794 150.217 364.156 148.137 364.156 145.031C364.156 141.94 362.809 139.948 360.377 139.934C357.887 139.948 356.598 142.072 356.598 145.031Z" fill="white"/>
<path d="M12.832 18.793C14.6875 18.793 16.2988 18.9834 17.666 19.3643C19.043 19.7354 20.1025 20.2822 20.8447 21.0049C21.5967 21.7178 21.9727 22.5723 21.9727 23.5684C21.9727 24.5547 21.5967 25.4043 20.8447 26.1172C20.1025 26.8301 19.043 27.3721 17.666 27.7432C16.2988 28.124 14.6875 28.3145 12.832 28.3145C10.9766 28.3145 9.36035 28.124 7.9834 27.7432C6.61621 27.3721 5.56152 26.8301 4.81934 26.1172C4.08691 25.4043 3.7207 24.5547 3.7207 23.5684C3.7207 22.5723 4.08691 21.7178 4.81934 21.0049C5.56152 20.2822 6.61621 19.7354 7.9834 19.3643C9.36035 18.9834 10.9766 18.793 12.832 18.793ZM1.08398 14.4863H10.8984V9.44727H13.1543V14.4863H24.7852V16.3613H1.08398V14.4863ZM3.89648 3.67578H21.7676V5.87305C21.7578 7.30859 21.7139 8.52441 21.6357 9.52051C21.5576 10.5068 21.3574 11.5957 21.0352 12.7871L18.7793 12.5234C19.0918 11.332 19.2871 10.2627 19.3652 9.31543C19.4434 8.3584 19.4824 7.21094 19.4824 5.87305V5.55078H3.89648V3.67578ZM6.00586 23.5684C6.00586 24.1641 6.28418 24.6865 6.84082 25.1357C7.39746 25.5752 8.18848 25.9121 9.21387 26.1465C10.249 26.3809 11.4551 26.498 12.832 26.498C14.209 26.498 15.4102 26.3809 16.4355 26.1465C17.4707 25.9121 18.2666 25.5752 18.8232 25.1357C19.3896 24.6865 19.6777 24.1641 19.6875 23.5684C19.6777 22.9531 19.3896 22.4209 18.8232 21.9717C18.2666 21.5225 17.4707 21.1758 16.4355 20.9316C15.4102 20.6777 14.209 20.5508 12.832 20.5508C11.4551 20.5508 10.249 20.6777 9.21387 20.9316C8.18848 21.1758 7.39746 21.5225 6.84082 21.9717C6.28418 22.4209 6.00586 22.9531 6.00586 23.5684ZM36.2988 10.3262C36.2988 11.7617 36.6162 13.1924 37.251 14.6182C37.8955 16.0439 38.7549 17.3135 39.8291 18.4268C40.9131 19.5303 42.0898 20.3555 43.3594 20.9023L42.0703 22.7188C40.5371 22.0254 39.1553 20.9707 37.9248 19.5547C36.7041 18.1387 35.791 16.5322 35.1855 14.7354C34.5801 16.6396 33.6621 18.3682 32.4316 19.9209C31.2109 21.4639 29.8535 22.6113 28.3594 23.3633L26.9824 21.5469C28.2227 20.9512 29.375 20.0527 30.4395 18.8516C31.5137 17.6504 32.373 16.2979 33.0176 14.7939C33.6621 13.2803 33.9844 11.791 33.9844 10.3262V6.92773H27.832V5.02344H42.5098V6.92773H36.2988V10.3262ZM46.1426 2.32812H48.457V28.373H46.1426V2.32812ZM61.6406 9.33008C61.6406 10.8242 61.9385 12.3184 62.5342 13.8125C63.1396 15.2969 63.9551 16.625 64.9805 17.7969C66.0156 18.9688 67.1484 19.8574 68.3789 20.4629L66.9727 22.3086C65.5371 21.5664 64.248 20.4678 63.1055 19.0127C61.9727 17.5576 61.1182 15.9219 60.542 14.1055C59.9658 16.0293 59.0967 17.7676 57.9346 19.3203C56.7725 20.8633 55.459 22.0254 53.9941 22.8066L52.5293 20.9609C53.7891 20.3457 54.9365 19.4229 55.9717 18.1924C57.0166 16.9619 57.8418 15.5703 58.4473 14.0176C59.0625 12.4551 59.375 10.8926 59.3848 9.33008V4.58398H61.6406V9.33008ZM70.7812 2.32812H73.0664V12.9043H77.4316V14.8965H73.0664V28.373H70.7812V2.32812ZM99.1992 9.59375H103.125V11.5566H99.1992V19.1445H96.9141V2.32812H99.1992V9.59375ZM78.8965 5.31641H85.5176V2.12305H87.8027V5.31641H94.4238V7.13281H78.8965V5.31641ZM80.3906 13.0801C80.3906 12.1621 80.6494 11.3564 81.167 10.6631C81.6846 9.96973 82.417 9.43262 83.3643 9.05176C84.3115 8.6709 85.4102 8.48047 86.6602 8.48047C87.9004 8.48047 88.9893 8.6709 89.9268 9.05176C90.874 9.43262 91.6064 9.96973 92.124 10.6631C92.6514 11.3564 92.9199 12.1621 92.9297 13.0801C92.9199 14.0078 92.6514 14.8184 92.124 15.5117C91.6064 16.2051 90.874 16.7422 89.9268 17.123C88.9893 17.4941 87.9004 17.6797 86.6602 17.6797C85.4102 17.6797 84.3115 17.4941 83.3643 17.123C82.417 16.7422 81.6846 16.2051 81.167 15.5117C80.6494 14.8184 80.3906 14.0078 80.3906 13.0801ZM82.4414 23.832C82.4414 22.8945 82.7783 22.0889 83.4521 21.415C84.1357 20.7412 85.1172 20.2236 86.3965 19.8623C87.6758 19.501 89.1992 19.3203 90.9668 19.3203C92.7246 19.3203 94.2432 19.501 95.5225 19.8623C96.8018 20.2236 97.7832 20.7412 98.4668 21.415C99.1504 22.0889 99.4922 22.8945 99.4922 23.832C99.4922 24.7695 99.1504 25.5703 98.4668 26.2344C97.7832 26.9082 96.8018 27.4209 95.5225 27.7725C94.2432 28.1338 92.7246 28.3145 90.9668 28.3145C89.1992 28.3145 87.6758 28.1338 86.3965 27.7725C85.1172 27.4209 84.1357 26.9082 83.4521 26.2344C82.7783 25.5703 82.4414 24.7695 82.4414 23.832ZM82.5879 13.0801C82.5879 13.6465 82.7539 14.1445 83.0859 14.5742C83.418 14.9941 83.8916 15.3213 84.5068 15.5557C85.1318 15.7803 85.8496 15.8926 86.6602 15.8926C87.4609 15.8926 88.1689 15.7803 88.7842 15.5557C89.4092 15.3213 89.8926 14.9941 90.2344 14.5742C90.5762 14.1445 90.752 13.6465 90.7617 13.0801C90.752 12.5137 90.5762 12.0156 90.2344 11.5859C89.8926 11.1562 89.4092 10.8242 88.7842 10.5898C88.1689 10.3457 87.4609 10.2188 86.6602 10.209C85.8496 10.2188 85.1318 10.3457 84.5068 10.5898C83.8916 10.8242 83.418 11.1562 83.0859 11.5859C82.7539 12.0156 82.5879 12.5137 82.5879 13.0801ZM84.7266 23.832C84.7168 24.3887 84.9561 24.8721 85.4443 25.2822C85.9424 25.6826 86.6553 25.9902 87.583 26.2051C88.5107 26.4199 89.6094 26.5273 90.8789 26.5273C92.1875 26.5273 93.3154 26.4199 94.2627 26.2051C95.2197 25.9902 95.9473 25.6826 96.4453 25.2822C96.9531 24.8721 97.207 24.3887 97.207 23.832C97.2168 22.9727 96.665 22.3086 95.5518 21.8398C94.4482 21.3711 92.9199 21.1367 90.9668 21.1367C89.0039 21.1367 87.4707 21.3711 86.3672 21.8398C85.2637 22.3086 84.7168 22.9727 84.7266 23.832ZM115.781 26H113.262V4.78906H115.781V26ZM119.795 10.0918H122.314V26H119.795V10.0918ZM121.055 7.45508C120.576 7.45508 120.161 7.29395 119.81 6.97168C119.468 6.64941 119.297 6.26367 119.297 5.81445C119.297 5.3457 119.463 4.94531 119.795 4.61328C120.137 4.28125 120.547 4.11523 121.025 4.11523C121.523 4.11523 121.948 4.27637 122.3 4.59863C122.651 4.9209 122.832 5.31641 122.842 5.78516C122.832 6.24414 122.651 6.63965 122.3 6.97168C121.958 7.29395 121.543 7.45508 121.055 7.45508ZM135.176 14.2227C134.99 13.5391 134.629 13.0068 134.092 12.626C133.564 12.2354 132.852 12.0352 131.953 12.0254C131.309 12.0254 130.732 12.1328 130.225 12.3477C129.717 12.5625 129.316 12.8555 129.023 13.2266C128.73 13.5879 128.584 13.9883 128.584 14.4277C128.594 14.9551 128.818 15.4043 129.258 15.7754C129.697 16.1367 130.381 16.4297 131.309 16.6543L133.682 17.2402C135.098 17.5723 136.157 18.0996 136.86 18.8223C137.563 19.5352 137.92 20.4434 137.93 21.5469C137.92 22.4746 137.671 23.2998 137.183 24.0225C136.694 24.7451 135.981 25.3115 135.044 25.7217C134.106 26.1221 132.988 26.3223 131.689 26.3223C129.912 26.332 128.501 25.9512 127.456 25.1797C126.411 24.4082 125.781 23.2949 125.566 21.8398H128.203C128.496 23.3633 129.619 24.125 131.572 24.125C132.734 24.125 133.647 23.9102 134.312 23.4805C134.985 23.041 135.322 22.4453 135.322 21.6934C135.322 21.127 135.112 20.6582 134.692 20.2871C134.272 19.916 133.613 19.623 132.715 19.4082L130.312 18.8516C128.936 18.5293 127.881 18.002 127.148 17.2695C126.426 16.5371 126.064 15.6387 126.064 14.5742C126.064 13.6758 126.309 12.8701 126.797 12.1572C127.295 11.4443 127.988 10.8877 128.877 10.4873C129.775 10.0869 130.801 9.88672 131.953 9.88672C133.027 9.88672 133.975 10.0674 134.795 10.4287C135.615 10.79 136.265 11.2979 136.743 11.9521C137.231 12.6064 137.529 13.3633 137.637 14.2227H135.176ZM148.154 12.2012H144.814V21.4297C144.805 22.3574 144.985 22.9873 145.356 23.3193C145.737 23.6416 146.25 23.8027 146.895 23.8027C147.275 23.8027 147.642 23.7881 147.993 23.7588L148.389 23.7441V26.0879C147.861 26.166 147.275 26.2051 146.631 26.2051C145.889 26.2051 145.186 26.0537 144.521 25.751C143.857 25.4385 143.315 24.9697 142.896 24.3447C142.476 23.7197 142.266 22.9629 142.266 22.0742V12.2012H139.863V10.0918H142.266V6.2832H144.814V10.0918H148.154V12.2012Z" fill="white"/>
<path d="M241.344 4.78906H248.551C250.162 4.78906 251.505 5.06738 252.579 5.62402C253.663 6.1709 254.469 6.9375 254.996 7.92383C255.523 8.90039 255.787 10.0332 255.787 11.3223C255.787 12.7676 255.455 14.0078 254.791 15.043C254.137 16.0684 253.15 16.8105 251.832 17.2695L256.607 26H253.531L249.093 17.7529C248.985 17.7627 248.814 17.7676 248.58 17.7676H243.98V26H241.344V4.78906ZM248.463 15.3652C250.104 15.3652 251.295 15.0186 252.037 14.3252C252.789 13.6318 253.17 12.6309 253.18 11.3223C253.16 8.5293 251.578 7.13281 248.434 7.13281H243.98V15.3652H248.463ZM265.777 26.3223C264.264 26.3223 262.945 25.9854 261.822 25.3115C260.699 24.6377 259.835 23.6855 259.229 22.4551C258.634 21.2246 258.336 19.7988 258.336 18.1777C258.336 16.5566 258.634 15.1211 259.229 13.8711C259.835 12.6113 260.68 11.6348 261.764 10.9414C262.857 10.2383 264.117 9.88672 265.543 9.88672C266.744 9.88672 267.862 10.1553 268.897 10.6924C269.933 11.2197 270.772 12.0791 271.417 13.2705C272.071 14.4521 272.398 15.9707 272.398 17.8262V18.8809H260.855C260.895 19.9844 261.124 20.9268 261.544 21.708C261.974 22.4893 262.55 23.085 263.272 23.4951C263.995 23.8955 264.83 24.0957 265.777 24.0957C266.676 24.0957 267.433 23.9297 268.048 23.5977C268.673 23.2559 269.146 22.8164 269.469 22.2793H272.164C271.91 23.0898 271.485 23.8027 270.89 24.418C270.304 25.0234 269.571 25.4922 268.692 25.8242C267.823 26.1562 266.852 26.3223 265.777 26.3223ZM269.85 16.7422C269.85 15.8633 269.669 15.0723 269.308 14.3691C268.956 13.666 268.453 13.1143 267.799 12.7139C267.154 12.3135 266.402 12.1133 265.543 12.1133C264.654 12.1133 263.863 12.3232 263.17 12.7432C262.486 13.1631 261.944 13.7295 261.544 14.4424C261.153 15.1455 260.929 15.9121 260.87 16.7422H269.85ZM282.125 32.2988C280.846 32.2988 279.713 32.1182 278.727 31.7568C277.75 31.3955 276.969 30.8633 276.383 30.1602C275.807 29.4668 275.475 28.6367 275.387 27.6699H278.023C278.189 28.4707 278.629 29.0762 279.342 29.4863C280.055 29.8965 280.982 30.1016 282.125 30.1016C283.521 30.1016 284.601 29.7842 285.362 29.1494C286.134 28.5244 286.52 27.5723 286.52 26.293V23.0703H286.314C286.012 23.5586 285.709 23.9785 285.406 24.3301C285.104 24.6816 284.64 25.0088 284.015 25.3115C283.399 25.6143 282.623 25.7656 281.686 25.7656C280.387 25.7559 279.225 25.4385 278.199 24.8135C277.174 24.1787 276.368 23.2656 275.782 22.0742C275.206 20.873 274.918 19.457 274.918 17.8262C274.918 16.2246 275.201 14.8232 275.768 13.6221C276.344 12.4209 277.145 11.498 278.17 10.8535C279.205 10.209 280.387 9.88672 281.715 9.88672C282.652 9.88672 283.429 10.0381 284.044 10.3408C284.669 10.6436 285.118 10.9609 285.392 11.293C285.675 11.6152 286.002 12.0547 286.373 12.6113H286.578V10.0918H289.039V26.4395C289.039 27.7578 288.736 28.8564 288.131 29.7354C287.535 30.6143 286.72 31.2588 285.685 31.6689C284.649 32.0889 283.463 32.2988 282.125 32.2988ZM277.467 17.9141C277.467 19.0273 277.638 20.0039 277.979 20.8438C278.331 21.6836 278.849 22.3379 279.532 22.8066C280.216 23.2754 281.051 23.5098 282.037 23.5098C283.482 23.5098 284.596 23.0215 285.377 22.0449C286.168 21.0586 286.568 19.6816 286.578 17.9141C286.568 16.7617 286.388 15.7559 286.036 14.8965C285.694 14.0273 285.182 13.3535 284.498 12.875C283.824 12.3867 283.004 12.1426 282.037 12.1426C281.051 12.1426 280.211 12.3965 279.518 12.9043C278.834 13.4023 278.321 14.0908 277.979 14.9697C277.638 15.8389 277.467 16.8203 277.467 17.9141ZM303.102 10.0918H305.592V26H303.102V23.3047H302.926C302.525 24.1641 301.92 24.8623 301.109 25.3994C300.309 25.9365 299.342 26.2051 298.209 26.2051C297.184 26.2051 296.28 25.9854 295.499 25.5459C294.728 25.0967 294.127 24.4229 293.697 23.5244C293.268 22.6162 293.053 21.5078 293.053 20.1992V10.0918H295.572V20.0234C295.572 20.7754 295.719 21.4346 296.012 22.001C296.305 22.5674 296.71 23.0068 297.228 23.3193C297.755 23.6221 298.355 23.7734 299.029 23.7734C299.664 23.7832 300.294 23.627 300.919 23.3047C301.544 22.9824 302.062 22.499 302.472 21.8545C302.892 21.2002 303.102 20.4043 303.102 19.4668V10.0918ZM312.154 26H309.635V4.78906H312.154V26ZM315.406 21.4883C315.406 19.8477 315.968 18.6904 317.091 18.0166C318.224 17.333 319.654 16.9277 321.383 16.8008C322.057 16.752 322.857 16.7031 323.785 16.6543C324.713 16.6055 325.348 16.5762 325.689 16.5664V15.2773C325.689 14.252 325.382 13.4658 324.767 12.9189C324.161 12.3623 323.268 12.084 322.086 12.084C321.119 12.084 320.328 12.2842 319.713 12.6846C319.098 13.0752 318.697 13.5879 318.512 14.2227H315.875C315.982 13.373 316.314 12.6211 316.871 11.9668C317.428 11.3125 318.165 10.8047 319.083 10.4434C320.011 10.0723 321.051 9.88672 322.203 9.88672C323.736 9.88672 325.118 10.2773 326.349 11.0586C327.579 11.8301 328.189 13.3145 328.18 15.5117V26H325.689V23.832H325.572C325.25 24.4961 324.688 25.0869 323.888 25.6045C323.097 26.1123 322.076 26.3711 320.826 26.3809C319.811 26.3711 318.893 26.1758 318.072 25.7949C317.252 25.4043 316.603 24.8428 316.124 24.1104C315.646 23.3682 315.406 22.4941 315.406 21.4883ZM317.926 21.6055C317.936 22.4258 318.243 23.0508 318.849 23.4805C319.464 23.9102 320.279 24.125 321.295 24.125C322.203 24.125 322.989 23.9443 323.653 23.583C324.317 23.2217 324.82 22.7432 325.162 22.1475C325.514 21.5518 325.689 20.9121 325.689 20.2285V18.6318C325.465 18.6416 324.82 18.6855 323.756 18.7637L321.676 18.9102C320.484 18.9883 319.562 19.2471 318.907 19.6865C318.263 20.126 317.936 20.7656 317.926 21.6055ZM332.223 10.0918H334.654V12.5234H334.83C335.113 11.7227 335.631 11.0781 336.383 10.5898C337.145 10.0918 337.994 9.83789 338.932 9.82812C339.068 9.82812 339.176 9.83301 339.254 9.84277C339.371 9.84277 339.542 9.84766 339.767 9.85742C339.991 9.86719 340.152 9.87695 340.25 9.88672V12.4355C339.742 12.3184 339.234 12.2598 338.727 12.2598C337.975 12.2598 337.296 12.4209 336.69 12.7432C336.085 13.0654 335.606 13.5098 335.255 14.0762C334.913 14.6426 334.742 15.2773 334.742 15.9805V26H332.223V10.0918Z" fill="white"/>
<path d="M23.4375 91.4902H20.7715V78.043H17.4023V90.1426H14.7949V65.7676H17.4023V75.7578H20.7715V65.2402H23.4375V91.4902ZM2.19727 68.3457H4.98047V82.3643C7.7832 82.335 10.4688 82.0664 13.0371 81.5586L13.3301 83.9902C11.6211 84.293 10 84.5078 8.4668 84.6348C6.93359 84.7617 5.41016 84.8203 3.89648 84.8105H2.19727V68.3457ZM56.1914 82.4082H41.8652V84.6348H55.7812V86.6855H41.8652V89.0586H56.6602V91.1094H39.0527V80.3281H56.1914V82.4082ZM34.541 77.6328C37.6758 76.8809 40.1221 75.7578 41.8799 74.2637C43.6377 72.7598 44.6338 70.9922 44.8682 68.9609H35.8594V66.7051H47.8711C47.8711 67.5449 47.7979 68.3555 47.6514 69.1367H53.3203V65.2402H56.1035V79.2734H53.3203V76.4316H46.6699V74.293H53.3203V71.2754H47.0654C46.2646 73.3652 44.8926 75.1328 42.9492 76.5781C41.0059 78.0234 38.5547 79.1172 35.5957 79.8594L34.541 77.6328ZM82.7344 91.4902H80.0684V65.2402H82.7344V91.4902ZM60.4395 76.5781C60.4395 74.7031 60.6689 73.0723 61.1279 71.6855C61.5967 70.2891 62.2559 69.2197 63.1055 68.4775C63.9648 67.7256 64.9609 67.3496 66.0938 67.3496C67.1484 67.3496 68.0811 67.667 68.8916 68.3018C69.7119 68.9365 70.3662 69.8545 70.8545 71.0557C71.3525 72.2471 71.6553 73.6582 71.7627 75.2891H74.7363V65.7383H77.4023V90.2012H74.7363V77.5449H71.7773C71.6992 79.2441 71.416 80.7188 70.9277 81.9688C70.4395 83.209 69.7803 84.166 68.9502 84.8398C68.1201 85.5039 67.168 85.8359 66.0938 85.8359C64.9609 85.8359 63.9648 85.4648 63.1055 84.7227C62.2559 83.9707 61.5967 82.8965 61.1279 81.5C60.6689 80.0938 60.4395 78.4531 60.4395 76.5781ZM63.0176 76.5781C63.0176 77.9551 63.1396 79.1416 63.3838 80.1377C63.6377 81.1338 63.9941 81.8955 64.4531 82.4229C64.9219 82.9404 65.4688 83.1992 66.0938 83.1992C66.7383 83.1992 67.2949 82.9404 67.7637 82.4229C68.2324 81.8955 68.5938 81.1338 68.8477 80.1377C69.1016 79.1416 69.2285 77.9551 69.2285 76.5781C69.2285 75.1914 69.1016 74.0049 68.8477 73.0186C68.5938 72.0225 68.2324 71.2656 67.7637 70.748C67.2949 70.2207 66.7383 69.957 66.0938 69.957C65.4688 69.957 64.9219 70.2207 64.4531 70.748C63.9941 71.2656 63.6377 72.0225 63.3838 73.0186C63.1396 74.0146 63.0176 75.2012 63.0176 76.5781ZM113.848 75.6992H117.92V78.0137H113.848V91.4609H111.064V65.2402H113.848V75.6992ZM93.4277 84.459C96.709 82.8184 99.2432 80.8164 101.03 78.4531C102.827 76.0898 103.867 73.375 104.15 70.3086H94.7461V67.9941H106.992C106.973 71.998 106.001 75.5967 104.077 78.79C102.153 81.9736 99.1211 84.5859 94.9805 86.627L93.4277 84.459ZM140.186 75.9043H143.994V78.1895H140.186V91.4902H137.402V65.2402H140.186V75.9043ZM119.092 84.1074C120.928 82.1934 122.266 80.1182 123.105 77.8818C123.955 75.6455 124.453 73.1309 124.6 70.3379H120.029V68.0527H127.236C127.227 70.4258 127.051 72.6182 126.709 74.6299C126.367 76.6318 125.757 78.5654 124.878 80.4307C124.009 82.2959 122.812 84.0391 121.289 85.6602L119.092 84.1074ZM126.592 85.8652C128.418 83.7363 129.722 81.3926 130.503 78.834C131.284 76.2754 131.733 73.4434 131.851 70.3379H128.086V68.0527H134.473C134.473 70.5723 134.326 72.9209 134.033 75.0986C133.74 77.2764 133.174 79.4199 132.334 81.5293C131.504 83.6387 130.332 85.5918 128.818 87.3887L126.592 85.8652ZM169.248 80.6504H158.848V85.748H156.035V80.6504H145.225V78.3945H169.248V80.6504ZM147.861 71.1875C147.861 70.1035 148.242 69.1611 149.004 68.3604C149.775 67.5596 150.864 66.9443 152.271 66.5146C153.687 66.0752 155.332 65.8555 157.207 65.8555C159.082 65.8555 160.723 66.0752 162.129 66.5146C163.535 66.9443 164.619 67.5596 165.381 68.3604C166.143 69.1611 166.523 70.1035 166.523 71.1875C166.523 72.2617 166.138 73.1992 165.366 74C164.604 74.8008 163.521 75.416 162.114 75.8457C160.708 76.2754 159.072 76.4902 157.207 76.4902C155.342 76.4902 153.701 76.2754 152.285 75.8457C150.869 75.416 149.775 74.8008 149.004 74C148.242 73.1992 147.861 72.2617 147.861 71.1875ZM148.242 83.2285H151.025V88.6484H166.582V90.9336H148.242V83.2285ZM150.85 71.1875C150.84 71.8125 151.094 72.3545 151.611 72.8135C152.139 73.2725 152.881 73.624 153.838 73.8682C154.805 74.1123 155.928 74.2344 157.207 74.2344C158.486 74.2344 159.604 74.1123 160.562 73.8682C161.528 73.624 162.275 73.2725 162.803 72.8135C163.33 72.3545 163.594 71.8125 163.594 71.1875C163.594 70.543 163.33 69.9912 162.803 69.5322C162.275 69.0635 161.528 68.707 160.562 68.4629C159.604 68.209 158.486 68.082 157.207 68.082C155.928 68.0918 154.805 68.2188 153.838 68.4629C152.881 68.707 152.139 69.0635 151.611 69.5322C151.094 70.001 150.84 70.5527 150.85 71.1875Z" fill="white"/>
<path d="M241.648 67.7891H245.574L252.283 84.2246H252.547L259.256 67.7891H263.182V89H260.105V73.6777H259.9L253.689 88.9707H251.141L244.9 73.6484H244.725V89H241.648V67.7891ZM274.109 89.3223C269.422 89.3223 266.536 86.085 266.551 81.1484C266.536 76.2559 269.466 72.8867 273.904 72.8867C277.522 72.8867 280.965 75.1279 280.965 80.8848V81.998H269.656C269.744 85.0303 271.531 86.7441 274.139 86.7441C275.911 86.7441 277.068 85.9824 277.596 85.0156H280.76C280.057 87.5938 277.61 89.3223 274.109 89.3223ZM269.671 79.6543H277.889C277.889 77.2373 276.321 75.4502 273.934 75.4648C271.429 75.4502 269.803 77.4131 269.671 79.6543ZM290.018 89.3223C286.18 89.3076 283.367 86.2168 283.367 81.0898C283.367 75.9043 286.224 72.8867 290.047 72.8867C293.006 72.8867 294.075 74.6738 294.646 75.6699H294.793V67.7891H297.928V89H294.881V86.5098H294.646C294.061 87.5498 292.918 89.3076 290.018 89.3223ZM286.561 81.0312C286.546 84.2246 287.981 86.6416 290.721 86.6562C293.387 86.6416 294.881 84.3711 294.881 81.0312C294.881 77.7207 293.416 75.5381 290.721 75.5527C287.952 75.5381 286.546 77.8965 286.561 81.0312ZM302 89V73.0918H305.135V89H302ZM301.59 68.7852C301.604 67.7598 302.498 66.9395 303.582 66.9395C304.651 66.9395 305.545 67.7598 305.545 68.7852C305.545 69.8105 304.651 70.6455 303.582 70.6309C302.498 70.6455 301.604 69.8105 301.59 68.7852ZM319.051 82.3789V73.0918H322.156V89H319.109V86.2461H318.934C318.201 87.9453 316.575 89.2051 314.188 89.2051C311.111 89.2051 308.943 87.1396 308.943 83.1992V73.0918H312.078V82.8184C312.078 84.9863 313.396 86.3633 315.301 86.3633C317.044 86.3633 319.051 85.0889 319.051 82.3789ZM325.965 89V73.0918H328.982V75.6992H329.158C329.832 73.9268 331.399 72.8867 333.494 72.8867C335.618 72.8867 337.098 73.9268 337.771 75.6992H337.947C338.694 73.9854 340.423 72.8867 342.723 72.8867C345.594 72.8867 347.63 74.6885 347.645 78.3359V89H344.51V78.6289C344.51 76.4756 343.162 75.582 341.521 75.582C339.515 75.582 338.357 76.959 338.357 78.8633V89H335.252V78.4531C335.252 76.71 334.065 75.582 332.352 75.582C330.594 75.582 329.1 77.0469 329.1 79.1855V89H325.965Z" fill="white"/>
</svg>
