<svg width="439" height="281" viewBox="0 0 439 281" fill="none" xmlns="http://www.w3.org/2000/svg">
<path d="M3.64 130V100.36H9.56V112.04H20.76V100.36H26.64V130H20.76V117.2H9.56V130H3.64ZM33.5534 130V125.24H39.9134V107.28H34.5534V103.64C37.5134 103.08 39.5534 102.32 41.4334 101.16H45.7934V125.24H51.3534V130H33.5534ZM66.0506 130V107.6H70.8506L71.2906 110.6H71.4106C73.2906 108.64 75.3706 107.04 78.2906 107.04C81.4906 107.04 83.3706 108.48 84.4506 110.96C86.4906 108.8 88.6506 107.04 91.5706 107.04C96.3306 107.04 98.5306 110.4 98.5306 116.04V130H92.6506V116.76C92.6506 113.28 91.6506 112.08 89.5306 112.08C88.2506 112.08 86.8106 112.92 85.2106 114.6V130H79.3706V116.76C79.3706 113.28 78.3306 112.08 76.2106 112.08C74.9306 112.08 73.4906 112.92 71.9306 114.6V130H66.0506ZM110.125 130.56C106.125 130.56 103.485 127.72 103.485 123.92C103.485 119.12 107.365 116.6 116.405 115.64C116.285 113.44 115.325 111.76 112.565 111.76C110.485 111.76 108.485 112.68 106.405 113.88L104.285 110C106.925 108.36 110.125 107.04 113.645 107.04C119.325 107.04 122.245 110.44 122.245 116.92V130H117.445L117.045 127.6H116.885C114.925 129.28 112.685 130.56 110.125 130.56ZM112.045 125.96C113.725 125.96 114.965 125.16 116.405 123.76V119.24C110.925 119.92 109.085 121.44 109.085 123.44C109.085 125.2 110.325 125.96 112.045 125.96ZM128.238 130V107.6H134.118V130H128.238ZM131.198 104C129.158 104 127.758 102.72 127.758 100.76C127.758 98.84 129.158 97.56 131.198 97.56C133.198 97.56 134.598 98.84 134.598 100.76C134.598 102.72 133.198 104 131.198 104ZM140.387 130V107.6H145.187L145.627 110.56H145.747C147.707 108.64 149.987 107.04 153.027 107.04C157.867 107.04 159.947 110.4 159.947 116.04V130H154.067V116.76C154.067 113.28 153.107 112.08 150.907 112.08C149.067 112.08 147.907 112.96 146.267 114.6V130H140.387ZM183.274 130.56C177.954 130.56 175.914 127.16 175.914 122.16V112.24H172.754V107.88L176.234 107.6L176.914 101.56H181.794V107.6H187.314V112.24H181.794V122.16C181.794 124.72 182.834 125.92 184.834 125.92C185.554 125.92 186.434 125.68 187.034 125.44L187.994 129.72C186.794 130.12 185.234 130.56 183.274 130.56ZM191.871 130V107.6H197.751V130H191.871ZM194.831 104C192.791 104 191.391 102.72 191.391 100.76C191.391 98.84 192.791 97.56 194.831 97.56C196.831 97.56 198.231 98.84 198.231 100.76C198.231 102.72 196.831 104 194.831 104ZM212.219 130.56C206.899 130.56 204.859 127.16 204.859 122.16V112.24H201.699V107.88L205.179 107.6L205.859 101.56H210.739V107.6H216.259V112.24H210.739V122.16C210.739 124.72 211.779 125.92 213.779 125.92C214.499 125.92 215.379 125.68 215.979 125.44L216.939 129.72C215.739 130.12 214.179 130.56 212.219 130.56ZM226.336 130.56C222.256 130.56 220.816 127.88 220.816 123.72V98.08H226.696V123.96C226.696 125.32 227.296 125.76 227.856 125.76C228.096 125.76 228.256 125.76 228.656 125.68L229.376 130.04C228.696 130.32 227.736 130.56 226.336 130.56ZM243.193 130.56C236.913 130.56 232.033 126.2 232.033 118.8C232.033 111.56 237.153 107.04 242.473 107.04C248.633 107.04 251.833 111.56 251.833 117.72C251.833 118.84 251.713 119.92 251.553 120.44H237.753C238.233 124.12 240.633 126.04 243.953 126.04C245.793 126.04 247.393 125.48 248.993 124.48L250.993 128.08C248.793 129.6 245.953 130.56 243.193 130.56ZM237.673 116.52H246.793C246.793 113.52 245.433 111.6 242.553 111.6C240.193 111.6 238.113 113.28 237.673 116.52Z" fill="black"/>
<path d="M1.38 223.435V211.855H2.505L2.625 212.785H2.67C3.405 212.185 4.32 211.645 5.265 211.645C7.365 211.645 8.505 213.295 8.505 215.8C8.505 218.59 6.84 220.195 4.965 220.195C4.23 220.195 3.45 219.85 2.715 219.25L2.745 220.675V223.435H1.38ZM4.74 219.055C6.09 219.055 7.08 217.84 7.08 215.815C7.08 214.015 6.48 212.8 4.935 212.8C4.245 212.8 3.54 213.19 2.745 213.925V218.2C3.48 218.83 4.2 219.055 4.74 219.055ZM10.6818 220V211.855H11.8068L11.9268 213.34H11.9718C12.5418 212.305 13.3668 211.645 14.2818 211.645C14.6418 211.645 14.8968 211.69 15.1518 211.825L14.8968 213.025C14.6268 212.92 14.4318 212.89 14.1018 212.89C13.4268 212.89 12.5868 213.37 12.0468 214.765V220H10.6818ZM19.5011 220.195C17.5061 220.195 15.7211 218.635 15.7211 215.935C15.7211 213.22 17.5061 211.645 19.5011 211.645C21.4961 211.645 23.2811 213.22 23.2811 215.935C23.2811 218.635 21.4961 220.195 19.5011 220.195ZM19.5011 219.055C20.9111 219.055 21.8711 217.81 21.8711 215.935C21.8711 214.06 20.9111 212.785 19.5011 212.785C18.0911 212.785 17.1461 214.06 17.1461 215.935C17.1461 217.81 18.0911 219.055 19.5011 219.055ZM28.2077 220.195C26.1677 220.195 24.8477 218.65 24.8477 215.935C24.8477 213.295 26.5127 211.645 28.3727 211.645C29.3327 211.645 29.9477 212.005 30.6677 212.605L30.6077 211.195V208.06H31.9577V220H30.8477L30.7277 219.04H30.6827C30.0377 219.67 29.1827 220.195 28.2077 220.195ZM28.5077 219.055C29.2577 219.055 29.9177 218.68 30.6077 217.93V213.655C29.9027 213.04 29.2877 212.8 28.6127 212.8C27.2927 212.8 26.2577 214.06 26.2577 215.92C26.2577 217.885 27.0677 219.055 28.5077 219.055ZM37.1045 220.195C35.3945 220.195 34.6295 219.085 34.6295 217.015V211.855H35.9945V216.85C35.9945 218.365 36.4445 219.01 37.5245 219.01C38.3645 219.01 38.9495 218.605 39.7295 217.63V211.855H41.0945V220H39.9545L39.8495 218.725H39.8045C39.0395 219.61 38.2295 220.195 37.1045 220.195ZM47.0558 220.195C44.8958 220.195 43.2308 218.635 43.2308 215.935C43.2308 213.22 45.0758 211.645 47.1608 211.645C48.2258 211.645 48.9608 212.095 49.5458 212.605L48.8408 213.505C48.3608 213.085 47.8658 212.785 47.2208 212.785C45.7358 212.785 44.6558 214.06 44.6558 215.935C44.6558 217.81 45.6758 219.055 47.1758 219.055C47.9258 219.055 48.5858 218.71 49.0958 218.245L49.6958 219.16C48.9608 219.82 48.0308 220.195 47.0558 220.195ZM53.8815 220.195C52.1415 220.195 51.5565 219.1 51.5565 217.48V212.965H50.3415V211.93L51.6165 211.855L51.7815 209.56H52.9215V211.855H55.1265V212.965H52.9215V217.51C52.9215 218.515 53.2365 219.085 54.1815 219.085C54.4665 219.085 54.8415 218.98 55.1115 218.875L55.3815 219.895C54.9165 220.045 54.3765 220.195 53.8815 220.195ZM62.8903 220.195C61.1503 220.195 60.5653 219.1 60.5653 217.48V212.965H59.3503V211.93L60.6253 211.855L60.7903 209.56H61.9303V211.855H64.1353V212.965H61.9303V217.51C61.9303 218.515 62.2453 219.085 63.1903 219.085C63.4753 219.085 63.8503 218.98 64.1203 218.875L64.3903 219.895C63.9253 220.045 63.3853 220.195 62.8903 220.195ZM69.0449 220.195C66.8849 220.195 65.1449 218.62 65.1449 215.935C65.1449 213.295 66.9299 211.645 68.8199 211.645C70.8899 211.645 72.0599 213.145 72.0599 215.47C72.0599 215.77 72.0299 216.055 71.9999 216.25H66.5099C66.5999 217.99 67.6649 219.1 69.2099 219.1C70.0049 219.1 70.6499 218.86 71.2499 218.455L71.7449 219.355C71.0249 219.82 70.1549 220.195 69.0449 220.195ZM66.4949 215.26H70.8599C70.8599 213.625 70.1099 212.74 68.8349 212.74C67.6799 212.74 66.6599 213.67 66.4949 215.26ZM72.7934 220L75.4784 215.755L73.0034 211.855H74.4734L75.5684 213.64C75.8234 214.105 76.1084 214.555 76.3784 215.005H76.4384C76.6934 214.555 76.9334 214.105 77.1734 213.64L78.1784 211.855H79.6034L77.1284 215.89L79.8134 220H78.3134L77.1134 218.095C76.8434 217.6 76.5434 217.105 76.2434 216.64H76.1684C75.8834 217.105 75.6134 217.6 75.3284 218.095L74.2334 220H72.7934ZM83.5739 220.195C81.8339 220.195 81.2489 219.1 81.2489 217.48V212.965H80.0339V211.93L81.3089 211.855L81.4739 209.56H82.6139V211.855H84.8189V212.965H82.6139V217.51C82.6139 218.515 82.9289 219.085 83.8739 219.085C84.1589 219.085 84.5339 218.98 84.8039 218.875L85.0739 219.895C84.6089 220.045 84.0689 220.195 83.5739 220.195Z" fill="black"/>
<path d="M4.212 70.234C2.826 70.234 1.494 69.658 0.558 68.884L1.368 67.804C2.214 68.488 3.096 68.956 4.266 68.956C5.562 68.956 6.192 68.272 6.192 67.426C6.192 66.418 5.04 65.986 3.96 65.572C2.592 65.068 1.098 64.402 1.098 62.746C1.098 61.198 2.358 59.974 4.482 59.974C5.688 59.974 6.75 60.478 7.506 61.072L6.714 62.134C6.048 61.63 5.364 61.27 4.5 61.27C3.258 61.27 2.682 61.918 2.682 62.674C2.682 63.61 3.69 63.952 4.788 64.366C6.21 64.906 7.776 65.482 7.776 67.336C7.776 68.92 6.516 70.234 4.212 70.234ZM12.9199 70.234C10.8679 70.234 9.94992 68.902 9.94992 66.418V60.226H11.5879V66.22C11.5879 68.038 12.1279 68.812 13.4239 68.812C14.4319 68.812 15.1339 68.326 16.0699 67.156V60.226H17.7079V70H16.3399L16.2139 68.47H16.1599C15.2419 69.532 14.2699 70.234 12.9199 70.234ZM25.3115 70.234C24.4115 70.234 23.3855 69.766 22.5395 68.992H22.4675L22.3235 70H21.0095V55.672H22.6475V59.596L22.5935 61.36C23.4755 60.586 24.5735 59.974 25.6535 59.974C28.1915 59.974 29.5595 61.954 29.5595 64.942C29.5595 68.308 27.5615 70.234 25.3115 70.234ZM25.0415 68.866C26.6615 68.866 27.8495 67.408 27.8495 64.978C27.8495 62.818 27.1295 61.36 25.2755 61.36C24.4475 61.36 23.5835 61.828 22.6475 62.71V67.84C23.5115 68.596 24.3935 68.866 25.0415 68.866ZM36.1619 70V60.226H37.5119L37.6559 61.648H37.7099C38.5559 60.712 39.5819 59.974 40.7519 59.974C42.2459 59.974 43.0559 60.694 43.4519 61.846C44.4599 60.748 45.4859 59.974 46.6739 59.974C48.6899 59.974 49.6439 61.306 49.6439 63.808V70H48.0059V64.024C48.0059 62.188 47.4299 61.414 46.1879 61.414C45.4319 61.414 44.6399 61.9 43.7219 62.908V70H42.0839V64.024C42.0839 62.188 41.5079 61.414 40.2659 61.414C39.5279 61.414 38.6999 61.9 37.7999 62.908V70H36.1619ZM56.7679 70.234C54.1759 70.234 52.0879 68.344 52.0879 65.122C52.0879 61.954 54.2299 59.974 56.4979 59.974C58.9819 59.974 60.3859 61.774 60.3859 64.564C60.3859 64.924 60.3499 65.266 60.3139 65.5H53.7259C53.8339 67.588 55.1119 68.92 56.9659 68.92C57.9199 68.92 58.6939 68.632 59.4139 68.146L60.0079 69.226C59.1439 69.784 58.0999 70.234 56.7679 70.234ZM53.7079 64.312H58.9459C58.9459 62.35 58.0459 61.288 56.5159 61.288C55.1299 61.288 53.9059 62.404 53.7079 64.312ZM62.7927 70V60.226H64.1427L64.2867 61.63H64.3407C65.2767 60.712 66.2847 59.974 67.6167 59.974C69.6687 59.974 70.6047 61.306 70.6047 63.808V70H68.9667V64.024C68.9667 62.188 68.4087 61.414 67.1127 61.414C66.1047 61.414 65.4207 61.918 64.4307 62.908V70H62.7927ZM76.6406 70.234C74.5886 70.234 73.6706 68.902 73.6706 66.418V60.226H75.3086V66.22C75.3086 68.038 75.8486 68.812 77.1446 68.812C78.1526 68.812 78.8546 68.326 79.7906 67.156V60.226H81.4286V70H80.0606L79.9346 68.47H79.8806C78.9626 69.532 77.9906 70.234 76.6406 70.234ZM89.0322 70.234C88.1322 70.234 87.1062 69.766 86.2602 68.992H86.1882L86.0442 70H84.7302V55.672H86.3682V59.596L86.3142 61.36C87.1962 60.586 88.2942 59.974 89.3742 59.974C91.9122 59.974 93.2802 61.954 93.2802 64.942C93.2802 68.308 91.2822 70.234 89.0322 70.234ZM88.7622 68.866C90.3822 68.866 91.5702 67.408 91.5702 64.978C91.5702 62.818 90.8502 61.36 88.9962 61.36C88.1682 61.36 87.3042 61.828 86.3682 62.71V67.84C87.2322 68.596 88.1142 68.866 88.7622 68.866ZM97.8259 70.234C96.1879 70.234 94.9639 69.226 94.9639 67.462C94.9639 65.338 96.8179 64.276 100.976 63.808C100.976 62.548 100.562 61.342 98.9599 61.342C97.8259 61.342 96.7999 61.864 96.0259 62.386L95.3779 61.252C96.2779 60.676 97.6639 59.974 99.2299 59.974C101.606 59.974 102.614 61.576 102.614 63.988V70H101.264L101.12 68.83H101.066C100.13 69.604 99.0319 70.234 97.8259 70.234ZM98.2939 68.92C99.2479 68.92 100.022 68.47 100.976 67.624V64.888C97.6819 65.284 96.5659 66.094 96.5659 67.354C96.5659 68.47 97.3219 68.92 98.2939 68.92ZM105.736 70V60.226H107.086L107.23 62.008H107.284C107.968 60.766 108.958 59.974 110.056 59.974C110.488 59.974 110.794 60.028 111.1 60.19L110.794 61.63C110.47 61.504 110.236 61.468 109.84 61.468C109.03 61.468 108.022 62.044 107.374 63.718V70H105.736Z" fill="black"/>
<path d="M327.792 21V20.028C331.662 16.176 333.84 13.872 333.84 11.766C333.84 10.308 333.048 9.264 331.41 9.264C330.33 9.264 329.394 9.948 328.674 10.794L327.72 9.876C328.8 8.706 329.934 7.932 331.608 7.932C333.966 7.932 335.442 9.426 335.442 11.694C335.442 14.106 333.246 16.5 330.204 19.704C330.888 19.65 331.68 19.578 332.364 19.578H336.09V21H327.792ZM341.988 21.234C339.432 21.234 337.866 18.84 337.866 14.538C337.866 10.236 339.432 7.932 341.988 7.932C344.544 7.932 346.092 10.254 346.092 14.538C346.092 18.84 344.544 21.234 341.988 21.234ZM341.988 19.92C343.482 19.92 344.49 18.3 344.49 14.538C344.49 10.776 343.482 9.246 341.988 9.246C340.476 9.246 339.468 10.776 339.468 14.538C339.468 18.3 340.476 19.92 341.988 19.92ZM348.625 25.122V11.226H349.975L350.119 12.342H350.173C351.055 11.622 352.153 10.974 353.287 10.974C355.807 10.974 357.175 12.954 357.175 15.96C357.175 19.308 355.177 21.234 352.927 21.234C352.045 21.234 351.109 20.82 350.227 20.1L350.263 21.81V25.122H348.625ZM352.657 19.866C354.277 19.866 355.465 18.408 355.465 15.978C355.465 13.818 354.745 12.36 352.891 12.36C352.063 12.36 351.217 12.828 350.263 13.71V18.84C351.145 19.596 352.009 19.866 352.657 19.866ZM362.531 21.234C360.443 21.234 359.741 19.92 359.741 17.976V12.558H358.283V11.316L359.813 11.226L360.011 8.472H361.379V11.226H364.025V12.558H361.379V18.012C361.379 19.218 361.757 19.902 362.891 19.902C363.233 19.902 363.683 19.776 364.007 19.65L364.331 20.874C363.773 21.054 363.125 21.234 362.531 21.234ZM370.263 21V11.226H371.613L371.757 12.648H371.811C372.657 11.712 373.683 10.974 374.853 10.974C376.347 10.974 377.157 11.694 377.553 12.846C378.561 11.748 379.587 10.974 380.775 10.974C382.791 10.974 383.745 12.306 383.745 14.808V21H382.107V15.024C382.107 13.188 381.531 12.414 380.289 12.414C379.533 12.414 378.741 12.9 377.823 13.908V21H376.185V15.024C376.185 13.188 375.609 12.414 374.367 12.414C373.629 12.414 372.801 12.9 371.901 13.908V21H370.263ZM390.869 21.234C388.277 21.234 386.189 19.344 386.189 16.122C386.189 12.954 388.331 10.974 390.599 10.974C393.083 10.974 394.487 12.774 394.487 15.564C394.487 15.924 394.451 16.266 394.415 16.5H387.827C387.935 18.588 389.213 19.92 391.067 19.92C392.021 19.92 392.795 19.632 393.515 19.146L394.109 20.226C393.245 20.784 392.201 21.234 390.869 21.234ZM387.809 15.312H393.047C393.047 13.35 392.147 12.288 390.617 12.288C389.231 12.288 388.007 13.404 387.809 15.312ZM400.224 21.234C397.776 21.234 396.192 19.38 396.192 16.122C396.192 12.954 398.19 10.974 400.422 10.974C401.574 10.974 402.312 11.406 403.176 12.126L403.104 10.434V6.672H404.724V21H403.392L403.248 19.848H403.194C402.42 20.604 401.394 21.234 400.224 21.234ZM400.584 19.866C401.484 19.866 402.276 19.416 403.104 18.516V13.386C402.258 12.648 401.52 12.36 400.71 12.36C399.126 12.36 397.884 13.872 397.884 16.104C397.884 18.462 398.856 19.866 400.584 19.866ZM408.056 21V11.226H409.694V21H408.056ZM408.884 9.21C408.236 9.21 407.786 8.778 407.786 8.112C407.786 7.482 408.236 7.05 408.884 7.05C409.532 7.05 409.982 7.482 409.982 8.112C409.982 8.778 409.532 9.21 408.884 9.21ZM415.857 21.234C413.805 21.234 412.887 19.902 412.887 17.418V11.226H414.525V17.22C414.525 19.038 415.065 19.812 416.361 19.812C417.369 19.812 418.071 19.326 419.007 18.156V11.226H420.645V21H419.277L419.151 19.47H419.097C418.179 20.532 417.207 21.234 415.857 21.234ZM423.947 21V11.226H425.297L425.441 12.648H425.495C426.341 11.712 427.367 10.974 428.537 10.974C430.031 10.974 430.841 11.694 431.237 12.846C432.245 11.748 433.271 10.974 434.459 10.974C436.475 10.974 437.429 12.306 437.429 14.808V21H435.791V15.024C435.791 13.188 435.215 12.414 433.973 12.414C433.217 12.414 432.425 12.9 431.507 13.908V21H429.869V15.024C429.869 13.188 429.293 12.414 428.051 12.414C427.313 12.414 426.485 12.9 425.585 13.908V21H423.947Z" fill="black"/>
<path d="M328.584 70V68.632H331.518V59.164H329.178V58.102C330.348 57.904 331.194 57.598 331.914 57.166H333.174V68.632H335.82V70H328.584ZM342.006 70.234C339.576 70.234 337.794 68.758 337.794 66.724C337.794 65.05 339.018 63.898 340.224 63.25V63.178C339.27 62.53 338.442 61.576 338.442 60.208C338.442 58.246 340.008 56.932 342.06 56.932C344.31 56.932 345.678 58.336 345.678 60.334C345.678 61.684 344.688 62.836 343.914 63.43V63.52C345.048 64.204 346.146 65.104 346.146 66.814C346.146 68.74 344.49 70.234 342.006 70.234ZM342.906 63.016C343.788 62.224 344.274 61.378 344.274 60.424C344.274 59.164 343.464 58.156 342.042 58.156C340.818 58.156 339.936 58.966 339.936 60.208C339.936 61.756 341.358 62.404 342.906 63.016ZM342.042 69.01C343.554 69.01 344.58 68.092 344.58 66.778C344.58 65.104 342.96 64.51 341.088 63.772C340.044 64.438 339.288 65.392 339.288 66.58C339.288 67.984 340.458 69.01 342.042 69.01ZM348.625 74.122V60.226H349.975L350.119 61.342H350.173C351.055 60.622 352.153 59.974 353.287 59.974C355.807 59.974 357.175 61.954 357.175 64.96C357.175 68.308 355.177 70.234 352.927 70.234C352.045 70.234 351.109 69.82 350.227 69.1L350.263 70.81V74.122H348.625ZM352.657 68.866C354.277 68.866 355.465 67.408 355.465 64.978C355.465 62.818 354.745 61.36 352.891 61.36C352.063 61.36 351.217 61.828 350.263 62.71V67.84C351.145 68.596 352.009 68.866 352.657 68.866ZM362.531 70.234C360.443 70.234 359.741 68.92 359.741 66.976V61.558H358.283V60.316L359.813 60.226L360.011 57.472H361.379V60.226H364.025V61.558H361.379V67.012C361.379 68.218 361.757 68.902 362.891 68.902C363.233 68.902 363.683 68.776 364.007 68.65L364.331 69.874C363.773 70.054 363.125 70.234 362.531 70.234ZM370.407 70V56.788H374.547C377.229 56.788 379.155 57.76 379.155 60.514C379.155 62.566 377.967 63.79 376.167 64.222L379.551 70H377.661L374.457 64.402H372.081V70H370.407ZM372.081 63.052H374.295C376.365 63.052 377.499 62.224 377.499 60.514C377.499 58.768 376.365 58.156 374.295 58.156H372.081V63.052ZM385.455 70.234C382.863 70.234 380.775 68.344 380.775 65.122C380.775 61.954 382.917 59.974 385.185 59.974C387.669 59.974 389.073 61.774 389.073 64.564C389.073 64.924 389.037 65.266 389.001 65.5H382.413C382.521 67.588 383.799 68.92 385.653 68.92C386.607 68.92 387.381 68.632 388.101 68.146L388.695 69.226C387.831 69.784 386.787 70.234 385.455 70.234ZM382.395 64.312H387.633C387.633 62.35 386.733 61.288 385.203 61.288C383.817 61.288 382.593 62.404 382.395 64.312ZM394.581 74.5C392.187 74.5 390.549 73.564 390.549 71.872C390.549 71.044 391.071 70.252 391.989 69.658V69.586C391.467 69.28 391.089 68.758 391.089 67.984C391.089 67.174 391.683 66.526 392.187 66.166V66.094C391.539 65.572 390.909 64.636 390.909 63.466C390.909 61.324 392.601 59.974 394.581 59.974C395.121 59.974 395.607 60.1 395.949 60.226H399.351V61.486H397.353C397.821 61.936 398.145 62.656 398.145 63.502C398.145 65.59 396.561 66.904 394.581 66.904C394.095 66.904 393.555 66.778 393.123 66.562C392.763 66.868 392.493 67.192 392.493 67.732C392.493 68.362 392.889 68.794 394.203 68.794H396.111C398.379 68.794 399.531 69.514 399.531 71.116C399.531 72.934 397.605 74.5 394.581 74.5ZM394.581 65.788C395.697 65.788 396.669 64.888 396.669 63.466C396.669 62.044 395.733 61.18 394.581 61.18C393.429 61.18 392.493 62.026 392.493 63.466C392.493 64.888 393.447 65.788 394.581 65.788ZM394.815 73.384C396.687 73.384 397.929 72.394 397.929 71.368C397.929 70.468 397.227 70.162 395.931 70.162H394.239C393.879 70.162 393.411 70.108 392.979 70C392.277 70.504 391.989 71.08 391.989 71.656C391.989 72.7 393.051 73.384 394.815 73.384ZM404.273 70.234C402.221 70.234 401.303 68.902 401.303 66.418V60.226H402.941V66.22C402.941 68.038 403.481 68.812 404.777 68.812C405.785 68.812 406.487 68.326 407.423 67.156V60.226H409.061V70H407.693L407.567 68.47H407.513C406.595 69.532 405.623 70.234 404.273 70.234ZM414.091 70.234C412.867 70.234 412.363 69.442 412.363 68.056V55.672H414.001V68.164C414.001 68.668 414.217 68.866 414.469 68.866C414.559 68.866 414.631 68.866 414.811 68.83L415.045 70.09C414.811 70.18 414.541 70.234 414.091 70.234ZM419.746 70.234C418.108 70.234 416.884 69.226 416.884 67.462C416.884 65.338 418.738 64.276 422.896 63.808C422.896 62.548 422.482 61.342 420.88 61.342C419.746 61.342 418.72 61.864 417.946 62.386L417.298 61.252C418.198 60.676 419.584 59.974 421.15 59.974C423.526 59.974 424.534 61.576 424.534 63.988V70H423.184L423.04 68.83H422.986C422.05 69.604 420.952 70.234 419.746 70.234ZM420.214 68.92C421.168 68.92 421.942 68.47 422.896 67.624V64.888C419.602 65.284 418.486 66.094 418.486 67.354C418.486 68.47 419.242 68.92 420.214 68.92ZM427.656 70V60.226H429.006L429.15 62.008H429.204C429.888 60.766 430.878 59.974 431.976 59.974C432.408 59.974 432.714 60.028 433.02 60.19L432.714 61.63C432.39 61.504 432.156 61.468 431.76 61.468C430.95 61.468 429.942 62.044 429.294 63.718V70H427.656Z" fill="black"/>
<path d="M329.07 113.14H333.12V109.378C333.12 108.712 333.174 107.614 333.21 106.93H333.138C332.814 107.542 332.454 108.1 332.076 108.73L329.07 113.14ZM333.12 118V114.454H327.36V113.374L332.85 105.166H334.668V113.14H336.414V114.454H334.668V118H333.12ZM341.988 118.234C339.432 118.234 337.866 115.84 337.866 111.538C337.866 107.236 339.432 104.932 341.988 104.932C344.544 104.932 346.092 107.254 346.092 111.538C346.092 115.84 344.544 118.234 341.988 118.234ZM341.988 116.92C343.482 116.92 344.49 115.3 344.49 111.538C344.49 107.776 343.482 106.246 341.988 106.246C340.476 106.246 339.468 107.776 339.468 111.538C339.468 115.3 340.476 116.92 341.988 116.92ZM348.625 122.122V108.226H349.975L350.119 109.342H350.173C351.055 108.622 352.153 107.974 353.287 107.974C355.807 107.974 357.175 109.954 357.175 112.96C357.175 116.308 355.177 118.234 352.927 118.234C352.045 118.234 351.109 117.82 350.227 117.1L350.263 118.81V122.122H348.625ZM352.657 116.866C354.277 116.866 355.465 115.408 355.465 112.978C355.465 110.818 354.745 109.36 352.891 109.36C352.063 109.36 351.217 109.828 350.263 110.71V115.84C351.145 116.596 352.009 116.866 352.657 116.866ZM362.531 118.234C360.443 118.234 359.741 116.92 359.741 114.976V109.558H358.283V108.316L359.813 108.226L360.011 105.472H361.379V108.226H364.025V109.558H361.379V115.012C361.379 116.218 361.757 116.902 362.891 116.902C363.233 116.902 363.683 116.776 364.007 116.65L364.331 117.874C363.773 118.054 363.125 118.234 362.531 118.234ZM370.407 118V104.788H374.331C377.013 104.788 378.867 105.706 378.867 108.028C378.867 109.342 378.165 110.494 376.941 110.89V110.98C378.507 111.286 379.623 112.33 379.623 114.13C379.623 116.722 377.571 118 374.619 118H370.407ZM372.081 110.422H374.043C376.311 110.422 377.229 109.576 377.229 108.244C377.229 106.696 376.167 106.12 374.115 106.12H372.081V110.422ZM372.081 116.668H374.385C376.653 116.668 377.985 115.858 377.985 114.076C377.985 112.438 376.689 111.682 374.385 111.682H372.081V116.668ZM385.892 118.234C383.498 118.234 381.356 116.362 381.356 113.122C381.356 109.864 383.498 107.974 385.892 107.974C388.286 107.974 390.428 109.864 390.428 113.122C390.428 116.362 388.286 118.234 385.892 118.234ZM385.892 116.866C387.584 116.866 388.736 115.372 388.736 113.122C388.736 110.872 387.584 109.342 385.892 109.342C384.2 109.342 383.066 110.872 383.066 113.122C383.066 115.372 384.2 116.866 385.892 116.866ZM394.738 118.234C393.514 118.234 393.01 117.442 393.01 116.056V103.672H394.648V116.164C394.648 116.668 394.864 116.866 395.116 116.866C395.206 116.866 395.278 116.866 395.458 116.83L395.692 118.09C395.458 118.18 395.188 118.234 394.738 118.234ZM401.472 118.234C399.024 118.234 397.44 116.38 397.44 113.122C397.44 109.954 399.438 107.974 401.67 107.974C402.822 107.974 403.56 108.406 404.424 109.126L404.352 107.434V103.672H405.972V118H404.64L404.496 116.848H404.442C403.668 117.604 402.642 118.234 401.472 118.234ZM401.832 116.866C402.732 116.866 403.524 116.416 404.352 115.516V110.386C403.506 109.648 402.768 109.36 401.958 109.36C400.374 109.36 399.132 110.872 399.132 113.104C399.132 115.462 400.104 116.866 401.832 116.866Z" fill="black"/>
<path d="M331.752 169.234C329.682 169.234 328.386 168.37 327.522 167.434L328.35 166.354C329.124 167.164 330.132 167.866 331.626 167.866C333.192 167.866 334.308 166.948 334.308 165.508C334.308 163.978 333.246 162.97 330.204 162.97V161.71C332.922 161.71 333.858 160.648 333.858 159.298C333.858 158.056 332.994 157.264 331.626 157.264C330.564 157.264 329.628 157.804 328.89 158.56L328.008 157.534C328.998 156.598 330.168 155.932 331.698 155.932C333.912 155.932 335.532 157.102 335.532 159.19C335.532 160.738 334.578 161.728 333.192 162.232V162.304C334.74 162.682 335.982 163.816 335.982 165.58C335.982 167.866 334.092 169.234 331.752 169.234ZM341.682 169.234C339.63 169.234 338.37 168.37 337.488 167.488L338.298 166.408C339.054 167.164 340.008 167.866 341.538 167.866C343.086 167.866 344.346 166.732 344.346 164.95C344.346 163.168 343.266 162.106 341.61 162.106C340.728 162.106 340.17 162.394 339.414 162.898L338.532 162.34L338.946 156.166H345.372V157.57H340.386L340.062 161.404C340.656 161.08 341.232 160.864 342.024 160.864C344.22 160.864 346.002 162.124 346.002 164.896C346.002 167.668 343.914 169.234 341.682 169.234ZM348.625 173.122V159.226H349.975L350.119 160.342H350.173C351.055 159.622 352.153 158.974 353.287 158.974C355.807 158.974 357.175 160.954 357.175 163.96C357.175 167.308 355.177 169.234 352.927 169.234C352.045 169.234 351.109 168.82 350.227 168.1L350.263 169.81V173.122H348.625ZM352.657 167.866C354.277 167.866 355.465 166.408 355.465 163.978C355.465 161.818 354.745 160.36 352.891 160.36C352.063 160.36 351.217 160.828 350.263 161.71V166.84C351.145 167.596 352.009 167.866 352.657 167.866ZM362.531 169.234C360.443 169.234 359.741 167.92 359.741 165.976V160.558H358.283V159.316L359.813 159.226L360.011 156.472H361.379V159.226H364.025V160.558H361.379V166.012C361.379 167.218 361.757 167.902 362.891 167.902C363.233 167.902 363.683 167.776 364.007 167.65L364.331 168.874C363.773 169.054 363.125 169.234 362.531 169.234ZM370.407 169V155.788H374.331C377.013 155.788 378.867 156.706 378.867 159.028C378.867 160.342 378.165 161.494 376.941 161.89V161.98C378.507 162.286 379.623 163.33 379.623 165.13C379.623 167.722 377.571 169 374.619 169H370.407ZM372.081 161.422H374.043C376.311 161.422 377.229 160.576 377.229 159.244C377.229 157.696 376.167 157.12 374.115 157.12H372.081V161.422ZM372.081 167.668H374.385C376.653 167.668 377.985 166.858 377.985 165.076C377.985 163.438 376.689 162.682 374.385 162.682H372.081V167.668ZM385.892 169.234C383.498 169.234 381.356 167.362 381.356 164.122C381.356 160.864 383.498 158.974 385.892 158.974C388.286 158.974 390.428 160.864 390.428 164.122C390.428 167.362 388.286 169.234 385.892 169.234ZM385.892 167.866C387.584 167.866 388.736 166.372 388.736 164.122C388.736 161.872 387.584 160.342 385.892 160.342C384.2 160.342 383.066 161.872 383.066 164.122C383.066 166.372 384.2 167.866 385.892 167.866ZM394.738 169.234C393.514 169.234 393.01 168.442 393.01 167.056V154.672H394.648V167.164C394.648 167.668 394.864 167.866 395.116 167.866C395.206 167.866 395.278 167.866 395.458 167.83L395.692 169.09C395.458 169.18 395.188 169.234 394.738 169.234ZM401.472 169.234C399.024 169.234 397.44 167.38 397.44 164.122C397.44 160.954 399.438 158.974 401.67 158.974C402.822 158.974 403.56 159.406 404.424 160.126L404.352 158.434V154.672H405.972V169H404.64L404.496 167.848H404.442C403.668 168.604 402.642 169.234 401.472 169.234ZM401.832 167.866C402.732 167.866 403.524 167.416 404.352 166.516V161.386C403.506 160.648 402.768 160.36 401.958 160.36C400.374 160.36 399.132 161.872 399.132 164.104C399.132 166.462 400.104 167.866 401.832 167.866Z" fill="black"/>
<path d="M328.584 221V219.632H331.518V210.164H329.178V209.102C330.348 208.904 331.194 208.598 331.914 208.166H333.174V219.632H335.82V221H328.584ZM341.682 221.234C339.63 221.234 338.37 220.37 337.488 219.488L338.298 218.408C339.054 219.164 340.008 219.866 341.538 219.866C343.086 219.866 344.346 218.732 344.346 216.95C344.346 215.168 343.266 214.106 341.61 214.106C340.728 214.106 340.17 214.394 339.414 214.898L338.532 214.34L338.946 208.166H345.372V209.57H340.386L340.062 213.404C340.656 213.08 341.232 212.864 342.024 212.864C344.22 212.864 346.002 214.124 346.002 216.896C346.002 219.668 343.914 221.234 341.682 221.234ZM348.625 225.122V211.226H349.975L350.119 212.342H350.173C351.055 211.622 352.153 210.974 353.287 210.974C355.807 210.974 357.175 212.954 357.175 215.96C357.175 219.308 355.177 221.234 352.927 221.234C352.045 221.234 351.109 220.82 350.227 220.1L350.263 221.81V225.122H348.625ZM352.657 219.866C354.277 219.866 355.465 218.408 355.465 215.978C355.465 213.818 354.745 212.36 352.891 212.36C352.063 212.36 351.217 212.828 350.263 213.71V218.84C351.145 219.596 352.009 219.866 352.657 219.866ZM362.531 221.234C360.443 221.234 359.741 219.92 359.741 217.976V212.558H358.283V211.316L359.813 211.226L360.011 208.472H361.379V211.226H364.025V212.558H361.379V218.012C361.379 219.218 361.757 219.902 362.891 219.902C363.233 219.902 363.683 219.776 364.007 219.65L364.331 220.874C363.773 221.054 363.125 221.234 362.531 221.234ZM370.407 221V207.788H374.547C377.229 207.788 379.155 208.76 379.155 211.514C379.155 213.566 377.967 214.79 376.167 215.222L379.551 221H377.661L374.457 215.402H372.081V221H370.407ZM372.081 214.052H374.295C376.365 214.052 377.499 213.224 377.499 211.514C377.499 209.768 376.365 209.156 374.295 209.156H372.081V214.052ZM385.455 221.234C382.863 221.234 380.775 219.344 380.775 216.122C380.775 212.954 382.917 210.974 385.185 210.974C387.669 210.974 389.073 212.774 389.073 215.564C389.073 215.924 389.037 216.266 389.001 216.5H382.413C382.521 218.588 383.799 219.92 385.653 219.92C386.607 219.92 387.381 219.632 388.101 219.146L388.695 220.226C387.831 220.784 386.787 221.234 385.455 221.234ZM382.395 215.312H387.633C387.633 213.35 386.733 212.288 385.203 212.288C383.817 212.288 382.593 213.404 382.395 215.312ZM394.581 225.5C392.187 225.5 390.549 224.564 390.549 222.872C390.549 222.044 391.071 221.252 391.989 220.658V220.586C391.467 220.28 391.089 219.758 391.089 218.984C391.089 218.174 391.683 217.526 392.187 217.166V217.094C391.539 216.572 390.909 215.636 390.909 214.466C390.909 212.324 392.601 210.974 394.581 210.974C395.121 210.974 395.607 211.1 395.949 211.226H399.351V212.486H397.353C397.821 212.936 398.145 213.656 398.145 214.502C398.145 216.59 396.561 217.904 394.581 217.904C394.095 217.904 393.555 217.778 393.123 217.562C392.763 217.868 392.493 218.192 392.493 218.732C392.493 219.362 392.889 219.794 394.203 219.794H396.111C398.379 219.794 399.531 220.514 399.531 222.116C399.531 223.934 397.605 225.5 394.581 225.5ZM394.581 216.788C395.697 216.788 396.669 215.888 396.669 214.466C396.669 213.044 395.733 212.18 394.581 212.18C393.429 212.18 392.493 213.026 392.493 214.466C392.493 215.888 393.447 216.788 394.581 216.788ZM394.815 224.384C396.687 224.384 397.929 223.394 397.929 222.368C397.929 221.468 397.227 221.162 395.931 221.162H394.239C393.879 221.162 393.411 221.108 392.979 221C392.277 221.504 391.989 222.08 391.989 222.656C391.989 223.7 393.051 224.384 394.815 224.384ZM404.273 221.234C402.221 221.234 401.303 219.902 401.303 217.418V211.226H402.941V217.22C402.941 219.038 403.481 219.812 404.777 219.812C405.785 219.812 406.487 219.326 407.423 218.156V211.226H409.061V221H407.693L407.567 219.47H407.513C406.595 220.532 405.623 221.234 404.273 221.234ZM414.091 221.234C412.867 221.234 412.363 220.442 412.363 219.056V206.672H414.001V219.164C414.001 219.668 414.217 219.866 414.469 219.866C414.559 219.866 414.631 219.866 414.811 219.83L415.045 221.09C414.811 221.18 414.541 221.234 414.091 221.234ZM419.746 221.234C418.108 221.234 416.884 220.226 416.884 218.462C416.884 216.338 418.738 215.276 422.896 214.808C422.896 213.548 422.482 212.342 420.88 212.342C419.746 212.342 418.72 212.864 417.946 213.386L417.298 212.252C418.198 211.676 419.584 210.974 421.15 210.974C423.526 210.974 424.534 212.576 424.534 214.988V221H423.184L423.04 219.83H422.986C422.05 220.604 420.952 221.234 419.746 221.234ZM420.214 219.92C421.168 219.92 421.942 219.47 422.896 218.624V215.888C419.602 216.284 418.486 217.094 418.486 218.354C418.486 219.47 419.242 219.92 420.214 219.92ZM427.656 221V211.226H429.006L429.15 213.008H429.204C429.888 211.766 430.878 210.974 431.976 210.974C432.408 210.974 432.714 211.028 433.02 211.19L432.714 212.63C432.39 212.504 432.156 212.468 431.76 212.468C430.95 212.468 429.942 213.044 429.294 214.718V221H427.656Z" fill="black"/>
<path d="M327.792 272V271.028C331.662 267.176 333.84 264.872 333.84 262.766C333.84 261.308 333.048 260.264 331.41 260.264C330.33 260.264 329.394 260.948 328.674 261.794L327.72 260.876C328.8 259.706 329.934 258.932 331.608 258.932C333.966 258.932 335.442 260.426 335.442 262.694C335.442 265.106 333.246 267.5 330.204 270.704C330.888 270.65 331.68 270.578 332.364 270.578H336.09V272H327.792ZM341.736 272.234C339.666 272.234 338.37 271.37 337.506 270.434L338.334 269.354C339.108 270.164 340.116 270.866 341.61 270.866C343.176 270.866 344.292 269.948 344.292 268.508C344.292 266.978 343.23 265.97 340.188 265.97V264.71C342.906 264.71 343.842 263.648 343.842 262.298C343.842 261.056 342.978 260.264 341.61 260.264C340.548 260.264 339.612 260.804 338.874 261.56L337.992 260.534C338.982 259.598 340.152 258.932 341.682 258.932C343.896 258.932 345.516 260.102 345.516 262.19C345.516 263.738 344.562 264.728 343.176 265.232V265.304C344.724 265.682 345.966 266.816 345.966 268.58C345.966 270.866 344.076 272.234 341.736 272.234ZM348.625 276.122V262.226H349.975L350.119 263.342H350.173C351.055 262.622 352.153 261.974 353.287 261.974C355.807 261.974 357.175 263.954 357.175 266.96C357.175 270.308 355.177 272.234 352.927 272.234C352.045 272.234 351.109 271.82 350.227 271.1L350.263 272.81V276.122H348.625ZM352.657 270.866C354.277 270.866 355.465 269.408 355.465 266.978C355.465 264.818 354.745 263.36 352.891 263.36C352.063 263.36 351.217 263.828 350.263 264.71V269.84C351.145 270.596 352.009 270.866 352.657 270.866ZM362.531 272.234C360.443 272.234 359.741 270.92 359.741 268.976V263.558H358.283V262.316L359.813 262.226L360.011 259.472H361.379V262.226H364.025V263.558H361.379V269.012C361.379 270.218 361.757 270.902 362.891 270.902C363.233 270.902 363.683 270.776 364.007 270.65L364.331 271.874C363.773 272.054 363.125 272.234 362.531 272.234ZM370.407 272V258.788H374.331C377.013 258.788 378.867 259.706 378.867 262.028C378.867 263.342 378.165 264.494 376.941 264.89V264.98C378.507 265.286 379.623 266.33 379.623 268.13C379.623 270.722 377.571 272 374.619 272H370.407ZM372.081 264.422H374.043C376.311 264.422 377.229 263.576 377.229 262.244C377.229 260.696 376.167 260.12 374.115 260.12H372.081V264.422ZM372.081 270.668H374.385C376.653 270.668 377.985 269.858 377.985 268.076C377.985 266.438 376.689 265.682 374.385 265.682H372.081V270.668ZM385.892 272.234C383.498 272.234 381.356 270.362 381.356 267.122C381.356 263.864 383.498 261.974 385.892 261.974C388.286 261.974 390.428 263.864 390.428 267.122C390.428 270.362 388.286 272.234 385.892 272.234ZM385.892 270.866C387.584 270.866 388.736 269.372 388.736 267.122C388.736 264.872 387.584 263.342 385.892 263.342C384.2 263.342 383.066 264.872 383.066 267.122C383.066 269.372 384.2 270.866 385.892 270.866ZM394.738 272.234C393.514 272.234 393.01 271.442 393.01 270.056V257.672H394.648V270.164C394.648 270.668 394.864 270.866 395.116 270.866C395.206 270.866 395.278 270.866 395.458 270.83L395.692 272.09C395.458 272.18 395.188 272.234 394.738 272.234ZM401.472 272.234C399.024 272.234 397.44 270.38 397.44 267.122C397.44 263.954 399.438 261.974 401.67 261.974C402.822 261.974 403.56 262.406 404.424 263.126L404.352 261.434V257.672H405.972V272H404.64L404.496 270.848H404.442C403.668 271.604 402.642 272.234 401.472 272.234ZM401.832 270.866C402.732 270.866 403.524 270.416 404.352 269.516V264.386C403.506 263.648 402.768 263.36 401.958 263.36C400.374 263.36 399.132 264.872 399.132 267.104C399.132 269.462 400.104 270.866 401.832 270.866Z" fill="black"/>
<path d="M2.093 275V257.957H7.682C11.454 257.957 14.352 259.291 14.352 263.316C14.352 267.203 11.431 268.951 7.774 268.951H5.497V275H2.093ZM5.497 266.26H7.544C9.89 266.26 11.017 265.271 11.017 263.316C11.017 261.338 9.775 260.671 7.429 260.671H5.497V266.26ZM17.1578 275V262.12H19.9178L20.1708 264.397H20.2398C21.1828 262.718 22.5628 261.798 23.8968 261.798C24.6098 261.798 25.0238 261.913 25.4148 262.074L24.8398 264.995C24.3798 264.857 24.0118 264.788 23.4828 264.788C22.4708 264.788 21.2518 265.455 20.5388 267.318V275H17.1578ZM27.1754 275V262.12H30.5564V275H27.1754ZM28.8774 260.05C27.7044 260.05 26.8994 259.314 26.8994 258.187C26.8994 257.083 27.7044 256.347 28.8774 256.347C30.0274 256.347 30.8324 257.083 30.8324 258.187C30.8324 259.314 30.0274 260.05 28.8774 260.05ZM39.6348 275.322C36.0698 275.322 33.3558 272.838 33.3558 268.56C33.3558 264.282 36.4378 261.798 39.9338 261.798C41.5208 261.798 42.7398 262.419 43.6828 263.224L42.0728 265.409C41.4288 264.857 40.8308 264.558 40.1178 264.558C38.1398 264.558 36.8058 266.145 36.8058 268.56C36.8058 270.998 38.1628 272.562 40.0028 272.562C40.9228 272.562 41.7968 272.125 42.5098 271.527L43.8668 273.758C42.6248 274.839 41.0608 275.322 39.6348 275.322ZM51.2054 275.322C47.5944 275.322 44.7884 272.815 44.7884 268.56C44.7884 264.397 47.7324 261.798 50.7914 261.798C54.3334 261.798 56.1734 264.397 56.1734 267.939C56.1734 268.583 56.1044 269.204 56.0124 269.503H48.0774C48.3534 271.619 49.7334 272.723 51.6424 272.723C52.7004 272.723 53.6204 272.401 54.5404 271.826L55.6904 273.896C54.4254 274.77 52.7924 275.322 51.2054 275.322ZM48.0314 267.249H53.2754C53.2754 265.524 52.4934 264.42 50.8374 264.42C49.4804 264.42 48.2844 265.386 48.0314 267.249ZM68.8836 275.322C65.8246 275.322 64.6516 273.367 64.6516 270.492V264.788H62.8346V262.281L64.8356 262.12L65.2266 258.647H68.0326V262.12H71.2066V264.788H68.0326V270.492C68.0326 271.964 68.6306 272.654 69.7806 272.654C70.1946 272.654 70.7006 272.516 71.0456 272.378L71.5976 274.839C70.9076 275.069 70.0106 275.322 68.8836 275.322ZM79.012 275.322C75.401 275.322 72.595 272.815 72.595 268.56C72.595 264.397 75.539 261.798 78.598 261.798C82.14 261.798 83.98 264.397 83.98 267.939C83.98 268.583 83.911 269.204 83.819 269.503H75.884C76.16 271.619 77.54 272.723 79.449 272.723C80.507 272.723 81.427 272.401 82.347 271.826L83.497 273.896C82.232 274.77 80.599 275.322 79.012 275.322ZM75.838 267.249H81.082C81.082 265.524 80.3 264.42 78.644 264.42C77.287 264.42 76.091 265.386 75.838 267.249ZM84.9559 275L88.9809 268.284L85.2089 262.12H88.8429L90.1309 264.397C90.4989 265.133 90.8899 265.869 91.2809 266.582H91.3729C91.6719 265.869 92.0169 265.133 92.3159 264.397L93.3969 262.12H96.8929L93.1209 268.675L97.1459 275H93.5119L92.0859 272.631C91.6719 271.895 91.2579 271.113 90.8439 270.377H90.7289C90.3609 271.113 90.0159 271.872 89.6479 272.631L88.4519 275H84.9559ZM103.316 275.322C100.257 275.322 99.0842 273.367 99.0842 270.492V264.788H97.2672V262.281L99.2682 262.12L99.6592 258.647H102.465V262.12H105.639V264.788H102.465V270.492C102.465 271.964 103.063 272.654 104.213 272.654C104.627 272.654 105.133 272.516 105.478 272.378L106.03 274.839C105.34 275.069 104.443 275.322 103.316 275.322Z" fill="black"/>
<path d="M3.185 179V153.065H8.365V163.285H18.165V153.065H23.31V179H18.165V167.8H8.365V179H3.185ZM27.9943 179V176.025C34.7493 169.585 39.1943 165.175 39.1943 161.43C39.1943 158.875 37.7943 157.335 35.3093 157.335C33.4193 157.335 31.8793 158.595 30.5493 160.03L27.7493 157.23C30.1293 154.675 32.4393 153.275 35.9743 153.275C40.8743 153.275 44.1293 156.39 44.1293 161.15C44.1293 165.56 40.0693 170.11 35.4493 174.94C36.7443 174.8 38.4593 174.66 39.6843 174.66H45.3543V179H27.9943ZM63.3943 179.49C60.7693 179.49 57.8993 178.335 55.9393 176.725L58.2843 173.505C60.0343 174.87 61.7143 175.64 63.5343 175.64C65.4943 175.64 66.3693 174.8 66.3693 173.575C66.3693 172.105 64.3393 171.44 62.2743 170.635C59.7893 169.69 57.0243 168.185 57.0243 164.895C57.0243 161.395 59.8593 158.91 64.3393 158.91C67.1743 158.91 69.3793 160.1 70.9893 161.325L68.6793 164.44C67.2793 163.425 65.9143 162.76 64.4793 162.76C62.6943 162.76 61.8543 163.53 61.8543 164.65C61.8543 166.085 63.6743 166.61 65.7393 167.38C68.3293 168.36 71.1993 169.655 71.1993 173.295C71.1993 176.725 68.5043 179.49 63.3943 179.49ZM80.9684 179.49C76.7334 179.49 74.9134 176.55 74.9134 171.65V159.4H80.0584V170.985C80.0584 173.995 80.8984 175.08 82.7884 175.08C84.3984 175.08 85.4484 174.38 86.7784 172.63V159.4H91.9234V179H87.7234L87.3384 176.2H87.1984C85.5184 178.195 83.6284 179.49 80.9684 179.49ZM107.244 179.49C105.494 179.49 103.604 178.58 102.029 176.935H101.889L101.434 179H97.4086V151.07H102.554V158.105L102.414 161.255C103.954 159.855 105.914 158.91 107.839 158.91C112.669 158.91 115.574 162.865 115.574 168.85C115.574 175.605 111.549 179.49 107.244 179.49ZM106.089 175.255C108.469 175.255 110.289 173.225 110.289 168.955C110.289 165.21 109.099 163.145 106.404 163.145C105.074 163.145 103.884 163.81 102.554 165.175V173.785C103.779 174.87 105.039 175.255 106.089 175.255ZM135.038 179.49C130.383 179.49 128.598 176.515 128.598 172.14V163.46H125.833V159.645L128.878 159.4L129.473 154.115H133.743V159.4H138.573V163.46H133.743V172.14C133.743 174.38 134.653 175.43 136.403 175.43C137.033 175.43 137.803 175.22 138.328 175.01L139.168 178.755C138.118 179.105 136.753 179.49 135.038 179.49ZM142.56 179V159.4H147.705V179H142.56ZM145.15 156.25C143.365 156.25 142.14 155.13 142.14 153.415C142.14 151.735 143.365 150.615 145.15 150.615C146.9 150.615 148.125 151.735 148.125 153.415C148.125 155.13 146.9 156.25 145.15 156.25ZM160.365 179.49C155.71 179.49 153.925 176.515 153.925 172.14V163.46H151.16V159.645L154.205 159.4L154.8 154.115H159.07V159.4H163.9V163.46H159.07V172.14C159.07 174.38 159.98 175.43 161.73 175.43C162.36 175.43 163.13 175.22 163.655 175.01L164.495 178.755C163.445 179.105 162.08 179.49 160.365 179.49ZM172.717 179.49C169.147 179.49 167.887 177.145 167.887 173.505V151.07H173.032V173.715C173.032 174.905 173.557 175.29 174.047 175.29C174.257 175.29 174.397 175.29 174.747 175.22L175.377 179.035C174.782 179.28 173.942 179.49 172.717 179.49ZM187.467 179.49C181.972 179.49 177.702 175.675 177.702 169.2C177.702 162.865 182.182 158.91 186.837 158.91C192.227 158.91 195.027 162.865 195.027 168.255C195.027 169.235 194.922 170.18 194.782 170.635H182.707C183.127 173.855 185.227 175.535 188.132 175.535C189.742 175.535 191.142 175.045 192.542 174.17L194.292 177.32C192.367 178.65 189.882 179.49 187.467 179.49ZM182.637 167.205H190.617C190.617 164.58 189.427 162.9 186.907 162.9C184.842 162.9 183.022 164.37 182.637 167.205Z" fill="black"/>
<path d="M1.74 23V12H3.62L3.8 13.54H3.86C4.8 12.54 5.9 11.72 7.26 11.72C8.9 11.72 9.82 12.48 10.3 13.74C11.38 12.58 12.5 11.72 13.88 11.72C16.18 11.72 17.26 13.28 17.26 16.08V23H14.96V16.36C14.96 14.46 14.36 13.7 13.12 13.7C12.36 13.7 11.56 14.2 10.64 15.2V23H8.34V16.36C8.34 14.46 7.76 13.7 6.5 13.7C5.76 13.7 4.94 14.2 4.04 15.2V23H1.74ZM23.1877 23.26C21.2877 23.26 19.9477 22.02 19.9477 20.08C19.9477 17.72 21.9477 16.5 26.5277 16C26.5077 14.72 26.0477 13.6 24.4277 13.6C23.2677 13.6 22.1877 14.12 21.2477 14.72L20.3877 13.16C21.5277 12.44 23.0677 11.72 24.8277 11.72C27.5677 11.72 28.8277 13.46 28.8277 16.38V23H26.9477L26.7677 21.74H26.6877C25.6877 22.6 24.5077 23.26 23.1877 23.26ZM23.8877 21.44C24.8477 21.44 25.6277 20.98 26.5277 20.16V17.46C23.2677 17.84 22.1677 18.68 22.1677 19.92C22.1677 21 22.9077 21.44 23.8877 21.44ZM32.0916 23V12H34.3916V23H32.0916ZM33.2316 9.94C32.3916 9.94 31.8116 9.4 31.8116 8.56C31.8116 7.74 32.3916 7.2 33.2316 7.2C34.0716 7.2 34.6716 7.74 34.6716 8.56C34.6716 9.4 34.0716 9.94 33.2316 9.94ZM37.8338 23V12H39.7138L39.8938 13.52H39.9538C40.9738 12.54 42.0938 11.72 43.5938 11.72C45.9338 11.72 46.9738 13.28 46.9738 16.08V23H44.6738V16.36C44.6738 14.46 44.1138 13.7 42.8138 13.7C41.7938 13.7 41.0938 14.22 40.1338 15.2V23H37.8338ZM54.8064 23V12H56.6864L56.8664 13.54H56.9264C57.8664 12.54 58.9664 11.72 60.3264 11.72C61.9664 11.72 62.8864 12.48 63.3664 13.74C64.4464 12.58 65.5664 11.72 66.9464 11.72C69.2464 11.72 70.3264 13.28 70.3264 16.08V23H68.0264V16.36C68.0264 14.46 67.4264 13.7 66.1864 13.7C65.4264 13.7 64.6264 14.2 63.7064 15.2V23H61.4064V16.36C61.4064 14.46 60.8264 13.7 59.5664 13.7C58.8264 13.7 58.0064 14.2 57.1064 15.2V23H54.8064ZM78.2341 23.26C75.2541 23.26 72.8741 21.14 72.8741 17.5C72.8741 13.94 75.3341 11.72 77.8941 11.72C80.8141 11.72 82.3941 13.82 82.3941 16.92C82.3941 17.38 82.3341 17.82 82.2741 18.1H75.1341C75.3141 20.2 76.6341 21.46 78.5341 21.46C79.5141 21.46 80.3541 21.16 81.1541 20.64L81.9541 22.1C80.9341 22.78 79.6741 23.26 78.2341 23.26ZM75.1141 16.5H80.3941C80.3941 14.62 79.5341 13.52 77.9341 13.52C76.5541 13.52 75.3341 14.58 75.1141 16.5ZM84.9627 23V12H86.8427L87.0227 13.52H87.0827C88.1027 12.54 89.2227 11.72 90.7227 11.72C93.0627 11.72 94.1027 13.28 94.1027 16.08V23H91.8027V16.36C91.8027 14.46 91.2427 13.7 89.9427 13.7C88.9227 13.7 88.2227 14.22 87.2627 15.2V23H84.9627ZM100.683 23.26C98.3231 23.26 97.3031 21.72 97.3031 18.92V12H99.6031V18.64C99.6031 20.52 100.143 21.28 101.443 21.28C102.463 21.28 103.163 20.8 104.083 19.64V12H106.383V23H104.503L104.323 21.34H104.263C103.263 22.5 102.183 23.26 100.683 23.26ZM114.965 23.26C113.965 23.26 112.865 22.74 111.925 21.86H111.865L111.645 23H109.845V7.06H112.145V11.28L112.065 13.16C113.005 12.34 114.185 11.72 115.345 11.72C118.125 11.72 119.705 13.94 119.705 17.32C119.705 21.1 117.445 23.26 114.965 23.26ZM114.525 21.36C116.125 21.36 117.325 19.94 117.325 17.36C117.325 15.06 116.585 13.64 114.745 13.64C113.885 13.64 113.045 14.08 112.145 14.98V20.36C112.985 21.1 113.845 21.36 114.525 21.36ZM124.731 23.26C122.831 23.26 121.491 22.02 121.491 20.08C121.491 17.72 123.491 16.5 128.071 16C128.051 14.72 127.591 13.6 125.971 13.6C124.811 13.6 123.731 14.12 122.791 14.72L121.931 13.16C123.071 12.44 124.611 11.72 126.371 11.72C129.111 11.72 130.371 13.46 130.371 16.38V23H128.491L128.311 21.74H128.231C127.231 22.6 126.051 23.26 124.731 23.26ZM125.431 21.44C126.391 21.44 127.171 20.98 128.071 20.16V17.46C124.811 17.84 123.711 18.68 123.711 19.92C123.711 21 124.451 21.44 125.431 21.44ZM133.635 23V12H135.515L135.695 13.98H135.755C136.535 12.56 137.695 11.72 138.875 11.72C139.415 11.72 139.775 11.8 140.115 11.96L139.695 13.96C139.315 13.84 139.035 13.78 138.595 13.78C137.695 13.78 136.615 14.4 135.935 16.14V23H133.635Z" fill="black"/>
</svg>
