<svg width="454" height="325" viewBox="0 0 454 325" fill="none" xmlns="http://www.w3.org/2000/svg">
<path d="M3.276 258.182C2.198 258.182 1.162 257.734 0.434 257.132L1.064 256.292C1.722 256.824 2.408 257.188 3.318 257.188C4.326 257.188 4.816 256.656 4.816 255.998C4.816 255.214 3.92 254.878 3.08 254.556C2.016 254.164 0.854 253.646 0.854 252.358C0.854 251.154 1.834 250.202 3.486 250.202C4.424 250.202 5.25 250.594 5.838 251.056L5.222 251.882C4.704 251.49 4.172 251.21 3.5 251.21C2.534 251.21 2.086 251.714 2.086 252.302C2.086 253.03 2.87 253.296 3.724 253.618C4.83 254.038 6.048 254.486 6.048 255.928C6.048 257.16 5.068 258.182 3.276 258.182ZM10.0488 258.182C8.45283 258.182 7.73883 257.146 7.73883 255.214V250.398H9.01283V255.06C9.01283 256.474 9.43283 257.076 10.4408 257.076C11.2248 257.076 11.7708 256.698 12.4988 255.788V250.398H13.7728V258H12.7088L12.6108 256.81H12.5688C11.8548 257.636 11.0988 258.182 10.0488 258.182ZM19.6867 258.182C18.9867 258.182 18.1887 257.818 17.5307 257.216H17.4747L17.3627 258H16.3407V246.856H17.6147V249.908L17.5727 251.28C18.2587 250.678 19.1127 250.202 19.9527 250.202C21.9267 250.202 22.9907 251.742 22.9907 254.066C22.9907 256.684 21.4367 258.182 19.6867 258.182ZM19.4767 257.118C20.7367 257.118 21.6607 255.984 21.6607 254.094C21.6607 252.414 21.1007 251.28 19.6587 251.28C19.0147 251.28 18.3427 251.644 17.6147 252.33V256.32C18.2867 256.908 18.9727 257.118 19.4767 257.118ZM28.1259 258V250.398H29.1759L29.2879 251.504H29.3299C29.9879 250.776 30.7859 250.202 31.6959 250.202C32.8579 250.202 33.4879 250.762 33.7959 251.658C34.5799 250.804 35.3779 250.202 36.3019 250.202C37.8699 250.202 38.6119 251.238 38.6119 253.184V258H37.3379V253.352C37.3379 251.924 36.8899 251.322 35.9239 251.322C35.3359 251.322 34.7199 251.7 34.0059 252.484V258H32.7319V253.352C32.7319 251.924 32.2839 251.322 31.3179 251.322C30.7439 251.322 30.0999 251.7 29.3999 252.484V258H28.1259ZM44.1528 258.182C42.1368 258.182 40.5128 256.712 40.5128 254.206C40.5128 251.742 42.1788 250.202 43.9428 250.202C45.8748 250.202 46.9668 251.602 46.9668 253.772C46.9668 254.052 46.9388 254.318 46.9108 254.5H41.7868C41.8708 256.124 42.8648 257.16 44.3068 257.16C45.0488 257.16 45.6508 256.936 46.2108 256.558L46.6728 257.398C46.0008 257.832 45.1888 258.182 44.1528 258.182ZM41.7728 253.576H45.8468C45.8468 252.05 45.1468 251.224 43.9568 251.224C42.8788 251.224 41.9268 252.092 41.7728 253.576ZM48.8388 258V250.398H49.8888L50.0008 251.49H50.0428C50.7708 250.776 51.5548 250.202 52.5908 250.202C54.1868 250.202 54.9148 251.238 54.9148 253.184V258H53.6408V253.352C53.6408 251.924 53.2068 251.322 52.1988 251.322C51.4148 251.322 50.8828 251.714 50.1128 252.484V258H48.8388ZM59.6094 258.182C58.0134 258.182 57.2994 257.146 57.2994 255.214V250.398H58.5734V255.06C58.5734 256.474 58.9934 257.076 60.0014 257.076C60.7854 257.076 61.3314 256.698 62.0594 255.788V250.398H63.3334V258H62.2694L62.1714 256.81H62.1294C61.4154 257.636 60.6594 258.182 59.6094 258.182ZM69.2473 258.182C68.5473 258.182 67.7493 257.818 67.0913 257.216H67.0353L66.9233 258H65.9013V246.856H67.1753V249.908L67.1333 251.28C67.8193 250.678 68.6733 250.202 69.5133 250.202C71.4873 250.202 72.5513 251.742 72.5513 254.066C72.5513 256.684 70.9973 258.182 69.2473 258.182ZM69.0373 257.118C70.2973 257.118 71.2213 255.984 71.2213 254.094C71.2213 252.414 70.6613 251.28 69.2193 251.28C68.5753 251.28 67.9033 251.644 67.1753 252.33V256.32C67.8473 256.908 68.5333 257.118 69.0373 257.118ZM76.0868 258.182C74.8128 258.182 73.8608 257.398 73.8608 256.026C73.8608 254.374 75.3028 253.548 78.5368 253.184C78.5368 252.204 78.2148 251.266 76.9688 251.266C76.0868 251.266 75.2888 251.672 74.6868 252.078L74.1828 251.196C74.8828 250.748 75.9608 250.202 77.1788 250.202C79.0268 250.202 79.8108 251.448 79.8108 253.324V258H78.7608L78.6488 257.09H78.6068C77.8788 257.692 77.0248 258.182 76.0868 258.182ZM76.4508 257.16C77.1928 257.16 77.7948 256.81 78.5368 256.152V254.024C75.9748 254.332 75.1068 254.962 75.1068 255.942C75.1068 256.81 75.6948 257.16 76.4508 257.16ZM82.2392 258V250.398H83.2892L83.4012 251.784H83.4432C83.9752 250.818 84.7452 250.202 85.5992 250.202C85.9352 250.202 86.1732 250.244 86.4112 250.37L86.1732 251.49C85.9212 251.392 85.7392 251.364 85.4312 251.364C84.8012 251.364 84.0172 251.812 83.5132 253.114V258H82.2392Z" fill="black"/>
<path d="M354.232 258V256.936H356.514V249.572H354.694V248.746C355.604 248.592 356.262 248.354 356.822 248.018H357.802V256.936H359.86V258H354.232ZM362.376 254.22H365.526V251.294C365.526 250.776 365.568 249.922 365.596 249.39H365.54C365.288 249.866 365.008 250.3 364.714 250.79L362.376 254.22ZM365.526 258V255.242H361.046V254.402L365.316 248.018H366.73V254.22H368.088V255.242H366.73V258H365.526ZM369.819 261.206V250.398H370.869L370.981 251.266H371.023C371.709 250.706 372.563 250.202 373.445 250.202C375.405 250.202 376.469 251.742 376.469 254.08C376.469 256.684 374.915 258.182 373.165 258.182C372.479 258.182 371.751 257.86 371.065 257.3L371.093 258.63V261.206H369.819ZM372.955 257.118C374.215 257.118 375.139 255.984 375.139 254.094C375.139 252.414 374.579 251.28 373.137 251.28C372.493 251.28 371.835 251.644 371.093 252.33V256.32C371.779 256.908 372.451 257.118 372.955 257.118ZM377.163 258L379.669 254.038L377.359 250.398H378.731L379.753 252.064C379.991 252.498 380.257 252.918 380.509 253.338H380.565C380.803 252.918 381.027 252.498 381.251 252.064L382.189 250.398H383.519L381.209 254.164L383.715 258H382.315L381.195 256.222C380.943 255.76 380.663 255.298 380.383 254.864H380.313C380.047 255.298 379.795 255.76 379.529 256.222L378.507 258H377.163ZM388.457 258V247.724H391.677C393.763 247.724 395.261 248.48 395.261 250.622C395.261 252.218 394.337 253.17 392.937 253.506L395.569 258H394.099L391.607 253.646H389.759V258H388.457ZM389.759 252.596H391.481C393.091 252.596 393.973 251.952 393.973 250.622C393.973 249.264 393.091 248.788 391.481 248.788H389.759V252.596ZM400.161 258.182C398.145 258.182 396.521 256.712 396.521 254.206C396.521 251.742 398.187 250.202 399.951 250.202C401.883 250.202 402.975 251.602 402.975 253.772C402.975 254.052 402.947 254.318 402.919 254.5H397.795C397.879 256.124 398.873 257.16 400.315 257.16C401.057 257.16 401.659 256.936 402.219 256.558L402.681 257.398C402.009 257.832 401.197 258.182 400.161 258.182ZM397.781 253.576H401.855C401.855 252.05 401.155 251.224 399.965 251.224C398.887 251.224 397.935 252.092 397.781 253.576ZM407.258 261.5C405.396 261.5 404.122 260.772 404.122 259.456C404.122 258.812 404.528 258.196 405.242 257.734V257.678C404.836 257.44 404.542 257.034 404.542 256.432C404.542 255.802 405.004 255.298 405.396 255.018V254.962C404.892 254.556 404.402 253.828 404.402 252.918C404.402 251.252 405.718 250.202 407.258 250.202C407.678 250.202 408.056 250.3 408.322 250.398H410.968V251.378H409.414C409.778 251.728 410.03 252.288 410.03 252.946C410.03 254.57 408.798 255.592 407.258 255.592C406.88 255.592 406.46 255.494 406.124 255.326C405.844 255.564 405.634 255.816 405.634 256.236C405.634 256.726 405.942 257.062 406.964 257.062H408.448C410.212 257.062 411.108 257.622 411.108 258.868C411.108 260.282 409.61 261.5 407.258 261.5ZM407.258 254.724C408.126 254.724 408.882 254.024 408.882 252.918C408.882 251.812 408.154 251.14 407.258 251.14C406.362 251.14 405.634 251.798 405.634 252.918C405.634 254.024 406.376 254.724 407.258 254.724ZM407.44 260.632C408.896 260.632 409.862 259.862 409.862 259.064C409.862 258.364 409.316 258.126 408.308 258.126H406.992C406.712 258.126 406.348 258.084 406.012 258C405.466 258.392 405.242 258.84 405.242 259.288C405.242 260.1 406.068 260.632 407.44 260.632ZM414.797 258.182C413.201 258.182 412.487 257.146 412.487 255.214V250.398H413.761V255.06C413.761 256.474 414.181 257.076 415.189 257.076C415.973 257.076 416.519 256.698 417.247 255.788V250.398H418.521V258H417.457L417.359 256.81H417.317C416.603 257.636 415.847 258.182 414.797 258.182ZM422.433 258.182C421.481 258.182 421.089 257.566 421.089 256.488V246.856H422.363V256.572C422.363 256.964 422.531 257.118 422.727 257.118C422.797 257.118 422.853 257.118 422.993 257.09L423.175 258.07C422.993 258.14 422.783 258.182 422.433 258.182ZM426.831 258.182C425.557 258.182 424.605 257.398 424.605 256.026C424.605 254.374 426.047 253.548 429.281 253.184C429.281 252.204 428.959 251.266 427.713 251.266C426.831 251.266 426.033 251.672 425.431 252.078L424.927 251.196C425.627 250.748 426.705 250.202 427.923 250.202C429.771 250.202 430.555 251.448 430.555 253.324V258H429.505L429.393 257.09H429.351C428.623 257.692 427.769 258.182 426.831 258.182ZM427.195 257.16C427.937 257.16 428.539 256.81 429.281 256.152V254.024C426.719 254.332 425.851 254.962 425.851 255.942C425.851 256.81 426.439 257.16 427.195 257.16ZM432.983 258V250.398H434.033L434.145 251.784H434.187C434.719 250.818 435.489 250.202 436.343 250.202C436.679 250.202 436.917 250.244 437.155 250.37L436.917 251.49C436.665 251.392 436.483 251.364 436.175 251.364C435.545 251.364 434.761 251.812 434.257 253.114V258H432.983Z" fill="black"/>
<path d="M1.04 109V104.32L6.435 102.76L5.33 104.06V63.76L6.435 65.19L1.04 63.63V58.95L14.43 58.43V80.205L12.415 79.75C14.495 77.6267 16.705 76.0667 19.045 75.07C21.385 74.03 23.6167 73.51 25.74 73.51C27.69 73.51 29.445 73.9217 31.005 74.745C32.565 75.5683 33.7783 76.8033 34.645 78.45C35.555 80.0533 35.9883 82.09 35.945 84.56V104.06L35.1 102.76L40.3 104.32V109H22.945V104.32L27.95 102.89L26.845 104.255V86.51C26.8883 84.43 26.4333 82.8917 25.48 81.895C24.5267 80.8983 23.2917 80.4 21.775 80.4C20.605 80.4 19.3267 80.725 17.94 81.375C16.5533 82.025 15.1667 83 13.78 84.3L14.43 82.935V104.255L13.585 102.89L18.33 104.32V109H1.04ZM61.9374 104.84L60.1824 102.435L68.6974 104.32V109H44.3224V104.32L54.4624 102.565L52.6424 104.84V70.91L55.1774 71.04L44.3874 77.02L41.3974 71.365L54.2024 62.98H61.9374V104.84ZM96.8637 109.78C95.1737 109.78 93.3537 109.672 91.4037 109.455C89.4537 109.238 87.352 108.913 85.0987 108.48V62.85L86.5287 65.32L80.7437 63.63V58.95L94.1987 58.43V79.88L93.0937 78.515C94.6537 76.955 96.3654 75.7417 98.2287 74.875C100.092 73.965 102.064 73.51 104.144 73.51C106.657 73.51 108.867 74.1817 110.774 75.525C112.68 76.825 114.175 78.775 115.259 81.375C116.385 83.975 116.949 87.1817 116.949 90.995C116.949 93.725 116.602 96.2383 115.909 98.535C115.259 100.788 114.154 102.76 112.594 104.45C111.077 106.14 109.019 107.462 106.419 108.415C103.862 109.325 100.677 109.78 96.8637 109.78ZM98.4887 103.28C101.609 103.28 103.884 102.262 105.314 100.225C106.744 98.1883 107.459 95.35 107.459 91.71C107.459 89.3267 107.177 87.29 106.614 85.6C106.05 83.8667 105.27 82.545 104.274 81.635C103.277 80.6817 102.042 80.205 100.569 80.205C99.442 80.205 98.2504 80.5083 96.9937 81.115C95.737 81.7217 94.437 82.6533 93.0937 83.91L94.1987 81.115V104.71L93.0937 102.5C95.1304 103.02 96.9287 103.28 98.4887 103.28ZM150.285 104.385L149.05 102.565L154.64 104.32V108.935L143.265 109.52L142.03 103.28L142.68 103.475C140.947 105.598 139.062 107.18 137.025 108.22C134.988 109.26 132.887 109.78 130.72 109.78C127.947 109.78 125.65 108.892 123.83 107.115C122.01 105.338 121.1 102.782 121.1 99.445C121.1 96.975 121.62 95.025 122.66 93.595C123.743 92.1217 125.303 91.06 127.34 90.41C129.377 89.76 131.847 89.435 134.75 89.435H141.835L141.185 90.15V85.86C141.185 83.8233 140.687 82.3717 139.69 81.505C138.737 80.6383 137.328 80.205 135.465 80.205C134.555 80.205 133.58 80.2917 132.54 80.465C131.5 80.6383 130.373 80.8983 129.16 81.245L130.07 80.27L129.225 85.535H123.57L123.05 76.045C125.997 75.1783 128.683 74.55 131.11 74.16C133.58 73.7267 135.833 73.51 137.87 73.51C141.9 73.51 144.977 74.3767 147.1 76.11C149.223 77.8433 150.285 80.53 150.285 84.17V104.385ZM130.265 98.535C130.265 100.138 130.633 101.33 131.37 102.11C132.15 102.847 133.125 103.215 134.295 103.215C135.378 103.215 136.57 102.89 137.87 102.24C139.17 101.547 140.405 100.615 141.575 99.445L141.185 101.005V93.595L141.835 94.245H136.245C133.992 94.245 132.432 94.5917 131.565 95.285C130.698 95.9783 130.265 97.0617 130.265 98.535ZM157.276 109V104.32L162.736 102.76L161.631 104.06V79.295L162.736 80.79L157.276 79.165V74.485L168.716 73.965L169.886 80.205L168.716 79.75C170.796 77.6267 173.006 76.0667 175.346 75.07C177.686 74.03 179.917 73.51 182.041 73.51C184.987 73.51 187.436 74.4417 189.386 76.305C191.336 78.125 192.289 80.8983 192.246 84.625V104.06L191.401 102.76L196.601 104.32V109H179.246V104.32L184.186 102.89L183.146 104.255V86.575C183.146 84.4517 182.669 82.8917 181.716 81.895C180.806 80.8983 179.592 80.4 178.076 80.4C176.906 80.4 175.627 80.725 174.241 81.375C172.854 82.025 171.489 83 170.146 84.3L170.731 82.935V104.255L169.886 102.89L174.631 104.32V109H157.276ZM199.107 109V104.32L204.567 102.76L203.462 104.06V79.295L204.567 80.79L199.107 79.165V74.485L210.547 73.965L211.717 80.205L210.547 79.75C212.627 77.6267 214.837 76.0667 217.177 75.07C219.517 74.03 221.748 73.51 223.872 73.51C226.818 73.51 229.267 74.4417 231.217 76.305C233.167 78.125 234.12 80.8983 234.077 84.625V104.06L233.232 102.76L238.432 104.32V109H221.077V104.32L226.017 102.89L224.977 104.255V86.575C224.977 84.4517 224.5 82.8917 223.547 81.895C222.637 80.8983 221.423 80.4 219.907 80.4C218.737 80.4 217.458 80.725 216.072 81.375C214.685 82.025 213.32 83 211.977 84.3L212.562 82.935V104.255L211.717 102.89L216.462 104.32V109H199.107ZM256.928 109.78C253.764 109.78 250.991 109.13 248.608 107.83C246.224 106.487 244.361 104.515 243.018 101.915C241.718 99.2717 241.068 96.065 241.068 92.295C241.068 88.395 241.761 85.0583 243.148 82.285C244.578 79.4683 246.571 77.3017 249.128 75.785C251.684 74.2683 254.696 73.51 258.163 73.51C261.543 73.51 264.294 74.1817 266.418 75.525C268.541 76.8683 270.101 78.71 271.098 81.05C272.094 83.3467 272.593 85.9467 272.593 88.85C272.593 89.5867 272.549 90.3233 272.463 91.06C272.419 91.7967 272.333 92.5767 272.203 93.4H248.413V88.005H264.403L263.233 88.85C263.276 87.1167 263.103 85.6 262.713 84.3C262.366 82.9567 261.759 81.9167 260.893 81.18C260.069 80.4433 258.921 80.075 257.448 80.075C255.758 80.075 254.393 80.5733 253.353 81.57C252.313 82.5233 251.554 83.8233 251.078 85.47C250.644 87.1167 250.428 88.9583 250.428 90.995C250.428 93.2917 250.709 95.35 251.273 97.17C251.836 98.99 252.746 100.42 254.003 101.46C255.303 102.5 256.993 103.02 259.073 103.02C260.546 103.02 262.128 102.76 263.818 102.24C265.551 101.677 267.349 100.853 269.213 99.77L272.268 104.645C269.754 106.378 267.176 107.678 264.533 108.545C261.933 109.368 259.398 109.78 256.928 109.78ZM276.612 109V104.32L281.877 102.825L280.967 104.19V79.23L282.007 80.79L276.612 79.165V74.485L288.052 73.965L289.222 80.14L288.052 79.88C290.002 77.8433 291.93 76.2833 293.837 75.2C295.743 74.0733 297.78 73.51 299.947 73.51C301.333 73.51 302.807 73.7267 304.367 74.16L303.782 86.185H298.517L297.542 79.165L298.387 80.92C298.127 80.8333 297.845 80.7683 297.542 80.725C297.282 80.6817 297.022 80.66 296.762 80.66C295.418 80.66 294.075 81.0717 292.732 81.895C291.432 82.7183 290.305 83.78 289.352 85.08L290.067 82.61V104.19L289.027 102.825L295.462 104.32V109H276.612Z" fill="black"/>
<path d="M357.088 87.862C356.444 87.862 355.66 88.212 354.988 89.192C355.156 91.138 355.926 92.188 357.186 92.188C358.18 92.188 358.936 91.306 358.936 89.976C358.936 88.688 358.32 87.862 357.088 87.862ZM357.2 93.182C355.226 93.182 353.756 91.586 353.756 88.394C353.756 84.376 355.562 82.836 357.564 82.836C358.628 82.836 359.398 83.284 359.958 83.886L359.244 84.684C358.838 84.194 358.222 83.9 357.606 83.9C356.192 83.9 355.016 84.978 354.96 88.156C355.604 87.386 356.486 86.91 357.298 86.91C359.02 86.91 360.14 87.946 360.14 89.976C360.14 91.894 358.796 93.182 357.2 93.182ZM364.42 93.182C362.824 93.182 361.844 92.51 361.158 91.824L361.788 90.984C362.376 91.572 363.118 92.118 364.308 92.118C365.512 92.118 366.492 91.236 366.492 89.85C366.492 88.464 365.652 87.638 364.364 87.638C363.678 87.638 363.244 87.862 362.656 88.254L361.97 87.82L362.292 83.018H367.29V84.11H363.412L363.16 87.092C363.622 86.84 364.07 86.672 364.686 86.672C366.394 86.672 367.78 87.652 367.78 89.808C367.78 91.964 366.156 93.182 364.42 93.182ZM369.819 96.206V85.398H370.869L370.981 86.266H371.023C371.709 85.706 372.563 85.202 373.445 85.202C375.405 85.202 376.469 86.742 376.469 89.08C376.469 91.684 374.915 93.182 373.165 93.182C372.479 93.182 371.751 92.86 371.065 92.3L371.093 93.63V96.206H369.819ZM372.955 92.118C374.215 92.118 375.139 90.984 375.139 89.094C375.139 87.414 374.579 86.28 373.137 86.28C372.493 86.28 371.835 86.644 371.093 87.33V91.32C371.779 91.908 372.451 92.118 372.955 92.118ZM377.163 93L379.669 89.038L377.359 85.398H378.731L379.753 87.064C379.991 87.498 380.257 87.918 380.509 88.338H380.565C380.803 87.918 381.027 87.498 381.251 87.064L382.189 85.398H383.519L381.209 89.164L383.715 93H382.315L381.195 91.222C380.943 90.76 380.663 90.298 380.383 89.864H380.313C380.047 90.298 379.795 90.76 379.529 91.222L378.507 93H377.163ZM388.457 93V82.724H391.509C393.595 82.724 395.037 83.438 395.037 85.244C395.037 86.266 394.491 87.162 393.539 87.47V87.54C394.757 87.778 395.625 88.59 395.625 89.99C395.625 92.006 394.029 93 391.733 93H388.457ZM389.759 87.106H391.285C393.049 87.106 393.763 86.448 393.763 85.412C393.763 84.208 392.937 83.76 391.341 83.76H389.759V87.106ZM389.759 91.964H391.551C393.315 91.964 394.351 91.334 394.351 89.948C394.351 88.674 393.343 88.086 391.551 88.086H389.759V91.964ZM400.5 93.182C398.638 93.182 396.972 91.726 396.972 89.206C396.972 86.672 398.638 85.202 400.5 85.202C402.362 85.202 404.028 86.672 404.028 89.206C404.028 91.726 402.362 93.182 400.5 93.182ZM400.5 92.118C401.816 92.118 402.712 90.956 402.712 89.206C402.712 87.456 401.816 86.266 400.5 86.266C399.184 86.266 398.302 87.456 398.302 89.206C398.302 90.956 399.184 92.118 400.5 92.118ZM407.38 93.182C406.428 93.182 406.036 92.566 406.036 91.488V81.856H407.31V91.572C407.31 91.964 407.478 92.118 407.674 92.118C407.744 92.118 407.8 92.118 407.94 92.09L408.122 93.07C407.94 93.14 407.73 93.182 407.38 93.182ZM412.618 93.182C410.714 93.182 409.482 91.74 409.482 89.206C409.482 86.742 411.036 85.202 412.772 85.202C413.668 85.202 414.242 85.538 414.914 86.098L414.858 84.782V81.856H416.118V93H415.082L414.97 92.104H414.928C414.326 92.692 413.528 93.182 412.618 93.182ZM412.898 92.118C413.598 92.118 414.214 91.768 414.858 91.068V87.078C414.2 86.504 413.626 86.28 412.996 86.28C411.764 86.28 410.798 87.456 410.798 89.192C410.798 91.026 411.554 92.118 412.898 92.118Z" fill="black"/>
<path d="M1.74 221V210H3.62L3.8 211.54H3.86C4.8 210.54 5.9 209.72 7.26 209.72C8.9 209.72 9.82 210.48 10.3 211.74C11.38 210.58 12.5 209.72 13.88 209.72C16.18 209.72 17.26 211.28 17.26 214.08V221H14.96V214.36C14.96 212.46 14.36 211.7 13.12 211.7C12.36 211.7 11.56 212.2 10.64 213.2V221H8.34V214.36C8.34 212.46 7.76 211.7 6.5 211.7C5.76 211.7 4.94 212.2 4.04 213.2V221H1.74ZM23.1877 221.26C21.2877 221.26 19.9477 220.02 19.9477 218.08C19.9477 215.72 21.9477 214.5 26.5277 214C26.5077 212.72 26.0477 211.6 24.4277 211.6C23.2677 211.6 22.1877 212.12 21.2477 212.72L20.3877 211.16C21.5277 210.44 23.0677 209.72 24.8277 209.72C27.5677 209.72 28.8277 211.46 28.8277 214.38V221H26.9477L26.7677 219.74H26.6877C25.6877 220.6 24.5077 221.26 23.1877 221.26ZM23.8877 219.44C24.8477 219.44 25.6277 218.98 26.5277 218.16V215.46C23.2677 215.84 22.1677 216.68 22.1677 217.92C22.1677 219 22.9077 219.44 23.8877 219.44ZM32.0916 221V210H34.3916V221H32.0916ZM33.2316 207.94C32.3916 207.94 31.8116 207.4 31.8116 206.56C31.8116 205.74 32.3916 205.2 33.2316 205.2C34.0716 205.2 34.6716 205.74 34.6716 206.56C34.6716 207.4 34.0716 207.94 33.2316 207.94ZM37.8338 221V210H39.7138L39.8938 211.52H39.9538C40.9738 210.54 42.0938 209.72 43.5938 209.72C45.9338 209.72 46.9738 211.28 46.9738 214.08V221H44.6738V214.36C44.6738 212.46 44.1138 211.7 42.8138 211.7C41.7938 211.7 41.0938 212.22 40.1338 213.2V221H37.8338ZM49.5142 216.2V214.5H54.7942V216.2H49.5142ZM57.4627 221V210H59.3427L59.5227 211.54H59.5827C60.5227 210.54 61.6227 209.72 62.9827 209.72C64.6227 209.72 65.5427 210.48 66.0227 211.74C67.1027 210.58 68.2227 209.72 69.6027 209.72C71.9027 209.72 72.9827 211.28 72.9827 214.08V221H70.6827V214.36C70.6827 212.46 70.0827 211.7 68.8427 211.7C68.0827 211.7 67.2827 212.2 66.3627 213.2V221H64.0627V214.36C64.0627 212.46 63.4827 211.7 62.2227 211.7C61.4827 211.7 60.6627 212.2 59.7627 213.2V221H57.4627ZM80.8903 221.26C77.9103 221.26 75.5303 219.14 75.5303 215.5C75.5303 211.94 77.9903 209.72 80.5503 209.72C83.4703 209.72 85.0503 211.82 85.0503 214.92C85.0503 215.38 84.9903 215.82 84.9303 216.1H77.7903C77.9703 218.2 79.2903 219.46 81.1903 219.46C82.1703 219.46 83.0103 219.16 83.8103 218.64L84.6103 220.1C83.5903 220.78 82.3303 221.26 80.8903 221.26ZM77.7703 214.5H83.0503C83.0503 212.62 82.1903 211.52 80.5903 211.52C79.2103 211.52 77.9903 212.58 77.7703 214.5ZM87.6189 221V210H89.4989L89.6789 211.52H89.7389C90.7589 210.54 91.8789 209.72 93.3789 209.72C95.7189 209.72 96.7589 211.28 96.7589 214.08V221H94.4589V214.36C94.4589 212.46 93.8989 211.7 92.5989 211.7C91.5789 211.7 90.8789 212.22 89.9189 213.2V221H87.6189ZM103.339 221.26C100.979 221.26 99.9594 219.72 99.9594 216.92V210H102.259V216.64C102.259 218.52 102.799 219.28 104.099 219.28C105.119 219.28 105.819 218.8 106.739 217.64V210H109.039V221H107.159L106.979 219.34H106.919C105.919 220.5 104.839 221.26 103.339 221.26Z" fill="black"/>
<path d="M353.616 219V218.244C356.626 215.248 358.32 213.456 358.32 211.818C358.32 210.684 357.704 209.872 356.43 209.872C355.59 209.872 354.862 210.404 354.302 211.062L353.56 210.348C354.4 209.438 355.282 208.836 356.584 208.836C358.418 208.836 359.566 209.998 359.566 211.762C359.566 213.638 357.858 215.5 355.492 217.992C356.024 217.95 356.64 217.894 357.172 217.894H360.07V219H353.616ZM364.658 219.182C362.67 219.182 361.452 217.32 361.452 213.974C361.452 210.628 362.67 208.836 364.658 208.836C366.646 208.836 367.85 210.642 367.85 213.974C367.85 217.32 366.646 219.182 364.658 219.182ZM364.658 218.16C365.82 218.16 366.604 216.9 366.604 213.974C366.604 211.048 365.82 209.858 364.658 209.858C363.482 209.858 362.698 211.048 362.698 213.974C362.698 216.9 363.482 218.16 364.658 218.16ZM369.819 222.206V211.398H370.869L370.981 212.266H371.023C371.709 211.706 372.563 211.202 373.445 211.202C375.405 211.202 376.469 212.742 376.469 215.08C376.469 217.684 374.915 219.182 373.165 219.182C372.479 219.182 371.751 218.86 371.065 218.3L371.093 219.63V222.206H369.819ZM372.955 218.118C374.215 218.118 375.139 216.984 375.139 215.094C375.139 213.414 374.579 212.28 373.137 212.28C372.493 212.28 371.835 212.644 371.093 213.33V217.32C371.779 217.908 372.451 218.118 372.955 218.118ZM377.163 219L379.669 215.038L377.359 211.398H378.731L379.753 213.064C379.991 213.498 380.257 213.918 380.509 214.338H380.565C380.803 213.918 381.027 213.498 381.251 213.064L382.189 211.398H383.519L381.209 215.164L383.715 219H382.315L381.195 217.222C380.943 216.76 380.663 216.298 380.383 215.864H380.313C380.047 216.298 379.795 216.76 379.529 217.222L378.507 219H377.163ZM388.345 219V211.398H389.395L389.507 212.504H389.549C390.207 211.776 391.005 211.202 391.915 211.202C393.077 211.202 393.707 211.762 394.015 212.658C394.799 211.804 395.597 211.202 396.521 211.202C398.089 211.202 398.831 212.238 398.831 214.184V219H397.557V214.352C397.557 212.924 397.109 212.322 396.143 212.322C395.555 212.322 394.939 212.7 394.225 213.484V219H392.951V214.352C392.951 212.924 392.503 212.322 391.537 212.322C390.963 212.322 390.319 212.7 389.619 213.484V219H388.345ZM404.372 219.182C402.356 219.182 400.732 217.712 400.732 215.206C400.732 212.742 402.398 211.202 404.162 211.202C406.094 211.202 407.186 212.602 407.186 214.772C407.186 215.052 407.158 215.318 407.13 215.5H402.006C402.09 217.124 403.084 218.16 404.526 218.16C405.268 218.16 405.87 217.936 406.43 217.558L406.892 218.398C406.22 218.832 405.408 219.182 404.372 219.182ZM401.992 214.576H406.066C406.066 213.05 405.366 212.224 404.176 212.224C403.098 212.224 402.146 213.092 401.992 214.576ZM411.648 219.182C409.744 219.182 408.512 217.74 408.512 215.206C408.512 212.742 410.066 211.202 411.802 211.202C412.698 211.202 413.272 211.538 413.944 212.098L413.888 210.782V207.856H415.148V219H414.112L414 218.104H413.958C413.356 218.692 412.558 219.182 411.648 219.182ZM411.928 218.118C412.628 218.118 413.244 217.768 413.888 217.068V213.078C413.23 212.504 412.656 212.28 412.026 212.28C410.794 212.28 409.828 213.456 409.828 215.192C409.828 217.026 410.584 218.118 411.928 218.118ZM417.739 219V211.398H419.013V219H417.739ZM418.383 209.83C417.879 209.83 417.529 209.494 417.529 208.976C417.529 208.486 417.879 208.15 418.383 208.15C418.887 208.15 419.237 208.486 419.237 208.976C419.237 209.494 418.887 209.83 418.383 209.83ZM423.807 219.182C422.211 219.182 421.497 218.146 421.497 216.214V211.398H422.771V216.06C422.771 217.474 423.191 218.076 424.199 218.076C424.983 218.076 425.529 217.698 426.257 216.788V211.398H427.531V219H426.467L426.369 217.81H426.327C425.613 218.636 424.857 219.182 423.807 219.182ZM430.099 219V211.398H431.149L431.261 212.504H431.303C431.961 211.776 432.759 211.202 433.669 211.202C434.831 211.202 435.461 211.762 435.769 212.658C436.553 211.804 437.351 211.202 438.275 211.202C439.843 211.202 440.585 212.238 440.585 214.184V219H439.311V214.352C439.311 212.924 438.863 212.322 437.897 212.322C437.309 212.322 436.693 212.7 435.979 213.484V219H434.705V214.352C434.705 212.924 434.257 212.322 433.291 212.322C432.717 212.322 432.073 212.7 431.373 213.484V219H430.099Z" fill="black"/>
<path d="M356.696 307.182C355.086 307.182 354.078 306.51 353.406 305.782L354.05 304.942C354.652 305.572 355.436 306.118 356.598 306.118C357.816 306.118 358.684 305.404 358.684 304.284C358.684 303.094 357.858 302.31 355.492 302.31V301.33C357.606 301.33 358.334 300.504 358.334 299.454C358.334 298.488 357.662 297.872 356.598 297.872C355.772 297.872 355.044 298.292 354.47 298.88L353.784 298.082C354.554 297.354 355.464 296.836 356.654 296.836C358.376 296.836 359.636 297.746 359.636 299.37C359.636 300.574 358.894 301.344 357.816 301.736V301.792C359.02 302.086 359.986 302.968 359.986 304.34C359.986 306.118 358.516 307.182 356.696 307.182ZM361.382 307V306.244C364.392 303.248 366.086 301.456 366.086 299.818C366.086 298.684 365.47 297.872 364.196 297.872C363.356 297.872 362.628 298.404 362.068 299.062L361.326 298.348C362.166 297.438 363.048 296.836 364.35 296.836C366.184 296.836 367.332 297.998 367.332 299.762C367.332 301.638 365.624 303.5 363.258 305.992C363.79 305.95 364.406 305.894 364.938 305.894H367.836V307H361.382ZM369.819 310.206V299.398H370.869L370.981 300.266H371.023C371.709 299.706 372.563 299.202 373.445 299.202C375.405 299.202 376.469 300.742 376.469 303.08C376.469 305.684 374.915 307.182 373.165 307.182C372.479 307.182 371.751 306.86 371.065 306.3L371.093 307.63V310.206H369.819ZM372.955 306.118C374.215 306.118 375.139 304.984 375.139 303.094C375.139 301.414 374.579 300.28 373.137 300.28C372.493 300.28 371.835 300.644 371.093 301.33V305.32C371.779 305.908 372.451 306.118 372.955 306.118ZM377.163 307L379.669 303.038L377.359 299.398H378.731L379.753 301.064C379.991 301.498 380.257 301.918 380.509 302.338H380.565C380.803 301.918 381.027 301.498 381.251 301.064L382.189 299.398H383.519L381.209 303.164L383.715 307H382.315L381.195 305.222C380.943 304.76 380.663 304.298 380.383 303.864H380.313C380.047 304.298 379.795 304.76 379.529 305.222L378.507 307H377.163ZM388.457 307V296.724H391.509C393.595 296.724 395.037 297.438 395.037 299.244C395.037 300.266 394.491 301.162 393.539 301.47V301.54C394.757 301.778 395.625 302.59 395.625 303.99C395.625 306.006 394.029 307 391.733 307H388.457ZM389.759 301.106H391.285C393.049 301.106 393.763 300.448 393.763 299.412C393.763 298.208 392.937 297.76 391.341 297.76H389.759V301.106ZM389.759 305.964H391.551C393.315 305.964 394.351 305.334 394.351 303.948C394.351 302.674 393.343 302.086 391.551 302.086H389.759V305.964ZM400.5 307.182C398.638 307.182 396.972 305.726 396.972 303.206C396.972 300.672 398.638 299.202 400.5 299.202C402.362 299.202 404.028 300.672 404.028 303.206C404.028 305.726 402.362 307.182 400.5 307.182ZM400.5 306.118C401.816 306.118 402.712 304.956 402.712 303.206C402.712 301.456 401.816 300.266 400.5 300.266C399.184 300.266 398.302 301.456 398.302 303.206C398.302 304.956 399.184 306.118 400.5 306.118ZM407.38 307.182C406.428 307.182 406.036 306.566 406.036 305.488V295.856H407.31V305.572C407.31 305.964 407.478 306.118 407.674 306.118C407.744 306.118 407.8 306.118 407.94 306.09L408.122 307.07C407.94 307.14 407.73 307.182 407.38 307.182ZM412.618 307.182C410.714 307.182 409.482 305.74 409.482 303.206C409.482 300.742 411.036 299.202 412.772 299.202C413.668 299.202 414.242 299.538 414.914 300.098L414.858 298.782V295.856H416.118V307H415.082L414.97 306.104H414.928C414.326 306.692 413.528 307.182 412.618 307.182ZM412.898 306.118C413.598 306.118 414.214 305.768 414.858 305.068V301.078C414.2 300.504 413.626 300.28 412.996 300.28C411.764 300.28 410.798 301.456 410.798 303.192C410.798 305.026 411.554 306.118 412.898 306.118Z" fill="black"/>
<path d="M2.112 312V301.28H0.16V296.832H2.112V295.936C2.112 294.827 2.35733 293.824 2.848 292.928C3.33867 292.011 4.05333 291.285 4.992 290.752C5.952 290.197 7.11467 289.92 8.48 289.92C10.0373 289.92 11.456 290.123 12.736 290.528H17.152V312H11.136V301.28H8.128V312H2.112ZM8.096 296.832H11.2V294.368C11.0507 294.325 10.8267 294.293 10.528 294.272C10.2507 294.251 10.0053 294.251 9.792 294.272C8.66133 294.357 8.096 294.955 8.096 296.064V296.832ZM27.9453 312.32C24.9159 312.32 22.6759 311.648 21.2253 310.304C19.7959 308.96 19.0813 306.997 19.0813 304.416C19.0813 301.856 19.8066 299.904 21.2573 298.56C22.7079 297.195 24.9373 296.512 27.9453 296.512C30.9746 296.512 33.2146 297.195 34.6653 298.56C36.1373 299.904 36.8733 301.856 36.8733 304.416C36.8733 306.997 36.1479 308.96 34.6973 310.304C33.2466 311.648 30.9959 312.32 27.9453 312.32ZM27.9453 307.936C28.9266 307.936 29.6306 307.659 30.0573 307.104C30.5053 306.549 30.7293 305.653 30.7293 304.416C30.7293 303.2 30.5053 302.315 30.0573 301.76C29.6306 301.184 28.9266 300.896 27.9453 300.896C26.9853 300.896 26.2919 301.184 25.8653 301.76C25.4386 302.315 25.2253 303.2 25.2253 304.416C25.2253 305.653 25.4386 306.549 25.8653 307.104C26.2919 307.659 26.9853 307.936 27.9453 307.936ZM41.05 312L37.05 296.832H42.874L44.666 304.352L46.426 299.008V296.832H50.842L52.954 304.352L54.682 296.832H60.506L56.506 312H51.13L48.826 305.12L46.522 312H41.05ZM75.811 312.32C73.7843 312.32 72.3123 311.808 71.395 310.784C70.4777 309.76 70.019 308.373 70.019 306.624V301.28H68.035V296.832H70.019V293.728L76.035 292.288V296.832H79.523L79.299 301.28H76.035V306.176C76.035 306.816 76.195 307.275 76.515 307.552C76.835 307.808 77.3257 307.936 77.987 307.936C78.6057 307.936 79.235 307.829 79.875 307.616V311.616C78.7443 312.085 77.3897 312.32 75.811 312.32ZM89.8233 312.32C88.0526 312.32 86.4846 312.032 85.1193 311.456C83.7753 310.859 82.7193 309.973 81.9513 308.8C81.2046 307.627 80.8313 306.176 80.8313 304.448C80.8313 302.037 81.5139 300.117 82.8793 298.688C84.2446 297.237 86.2819 296.512 88.9913 296.512C91.4659 296.512 93.3966 297.141 94.7833 298.4C96.1913 299.659 96.8953 301.376 96.8953 303.552V306.208H86.3673C86.6446 307.019 87.1886 307.595 87.9993 307.936C88.8099 308.277 89.9086 308.448 91.2953 308.448C92.1699 308.448 93.0446 308.373 93.9193 308.224C94.8153 308.053 95.5299 307.861 96.0633 307.648V311.264C94.5699 311.968 92.4899 312.32 89.8233 312.32ZM86.3673 302.944H91.7113V302.4C91.7113 301.803 91.5193 301.312 91.1353 300.928C90.7726 300.544 90.1219 300.352 89.1833 300.352C88.1379 300.352 87.4019 300.576 86.9753 301.024C86.5699 301.451 86.3673 302.091 86.3673 302.944ZM96.89 312L102.746 304.288L97.114 296.832H103.642L106.01 300.032L108.41 296.832H114.906L109.306 304.288L115.162 312H108.57L106.01 308.608L103.45 312H96.89ZM122.936 312.32C120.909 312.32 119.437 311.808 118.52 310.784C117.603 309.76 117.144 308.373 117.144 306.624V301.28H115.16V296.832H117.144V293.728L123.16 292.288V296.832H126.648L126.424 301.28H123.16V306.176C123.16 306.816 123.32 307.275 123.64 307.552C123.96 307.808 124.451 307.936 125.112 307.936C125.731 307.936 126.36 307.829 127 307.616V311.616C125.869 312.085 124.515 312.32 122.936 312.32Z" fill="black"/>
<path d="M356.696 168.182C355.086 168.182 354.078 167.51 353.406 166.782L354.05 165.942C354.652 166.572 355.436 167.118 356.598 167.118C357.816 167.118 358.684 166.404 358.684 165.284C358.684 164.094 357.858 163.31 355.492 163.31V162.33C357.606 162.33 358.334 161.504 358.334 160.454C358.334 159.488 357.662 158.872 356.598 158.872C355.772 158.872 355.044 159.292 354.47 159.88L353.784 159.082C354.554 158.354 355.464 157.836 356.654 157.836C358.376 157.836 359.636 158.746 359.636 160.37C359.636 161.574 358.894 162.344 357.816 162.736V162.792C359.02 163.086 359.986 163.968 359.986 165.34C359.986 167.118 358.516 168.182 356.696 168.182ZM364.42 168.182C362.824 168.182 361.844 167.51 361.158 166.824L361.788 165.984C362.376 166.572 363.118 167.118 364.308 167.118C365.512 167.118 366.492 166.236 366.492 164.85C366.492 163.464 365.652 162.638 364.364 162.638C363.678 162.638 363.244 162.862 362.656 163.254L361.97 162.82L362.292 158.018H367.29V159.11H363.412L363.16 162.092C363.622 161.84 364.07 161.672 364.686 161.672C366.394 161.672 367.78 162.652 367.78 164.808C367.78 166.964 366.156 168.182 364.42 168.182ZM369.819 171.206V160.398H370.869L370.981 161.266H371.023C371.709 160.706 372.563 160.202 373.445 160.202C375.405 160.202 376.469 161.742 376.469 164.08C376.469 166.684 374.915 168.182 373.165 168.182C372.479 168.182 371.751 167.86 371.065 167.3L371.093 168.63V171.206H369.819ZM372.955 167.118C374.215 167.118 375.139 165.984 375.139 164.094C375.139 162.414 374.579 161.28 373.137 161.28C372.493 161.28 371.835 161.644 371.093 162.33V166.32C371.779 166.908 372.451 167.118 372.955 167.118ZM380.635 168.182C379.011 168.182 378.465 167.16 378.465 165.648V161.434H377.331V160.468L378.521 160.398L378.675 158.256H379.739V160.398H381.797V161.434H379.739V165.676C379.739 166.614 380.033 167.146 380.915 167.146C381.181 167.146 381.531 167.048 381.783 166.95L382.035 167.902C381.601 168.042 381.097 168.182 380.635 168.182ZM386.761 168V157.724H389.813C391.899 157.724 393.341 158.438 393.341 160.244C393.341 161.266 392.795 162.162 391.843 162.47V162.54C393.061 162.778 393.929 163.59 393.929 164.99C393.929 167.006 392.333 168 390.037 168H386.761ZM388.063 162.106H389.589C391.353 162.106 392.067 161.448 392.067 160.412C392.067 159.208 391.241 158.76 389.645 158.76H388.063V162.106ZM388.063 166.964H389.855C391.619 166.964 392.655 166.334 392.655 164.948C392.655 163.674 391.647 163.086 389.855 163.086H388.063V166.964ZM398.805 168.182C396.943 168.182 395.277 166.726 395.277 164.206C395.277 161.672 396.943 160.202 398.805 160.202C400.667 160.202 402.333 161.672 402.333 164.206C402.333 166.726 400.667 168.182 398.805 168.182ZM398.805 167.118C400.121 167.118 401.017 165.956 401.017 164.206C401.017 162.456 400.121 161.266 398.805 161.266C397.489 161.266 396.607 162.456 396.607 164.206C396.607 165.956 397.489 167.118 398.805 167.118ZM405.685 168.182C404.733 168.182 404.341 167.566 404.341 166.488V156.856H405.615V166.572C405.615 166.964 405.783 167.118 405.979 167.118C406.049 167.118 406.105 167.118 406.245 167.09L406.427 168.07C406.245 168.14 406.035 168.182 405.685 168.182ZM410.923 168.182C409.019 168.182 407.787 166.74 407.787 164.206C407.787 161.742 409.341 160.202 411.077 160.202C411.973 160.202 412.547 160.538 413.219 161.098L413.163 159.782V156.856H414.423V168H413.387L413.275 167.104H413.233C412.631 167.692 411.833 168.182 410.923 168.182ZM411.203 167.118C411.903 167.118 412.519 166.768 413.163 166.068V162.078C412.505 161.504 411.931 161.28 411.301 161.28C410.069 161.28 409.103 162.456 409.103 164.192C409.103 166.026 409.859 167.118 411.203 167.118Z" fill="black"/>
<path d="M0.56 174V171.48L3.465 170.64L2.87 171.34V149.64L3.465 150.41L0.56 149.57V147.05L7.77 146.77V158.495L6.685 158.25C7.805 157.107 8.995 156.267 10.255 155.73C11.515 155.17 12.7167 154.89 13.86 154.89C14.91 154.89 15.855 155.112 16.695 155.555C17.535 155.998 18.1883 156.663 18.655 157.55C19.145 158.413 19.3783 159.51 19.355 160.84V171.34L18.9 170.64L21.7 171.48V174H12.355V171.48L15.05 170.71L14.455 171.445V161.89C14.4783 160.77 14.2333 159.942 13.72 159.405C13.2067 158.868 12.5417 158.6 11.725 158.6C11.095 158.6 10.4067 158.775 9.66 159.125C8.91333 159.475 8.16667 160 7.42 160.7L7.77 159.965V171.445L7.315 170.71L9.87 171.48V174H0.56ZM23.2709 174V169.8C25.9309 167.607 28.1009 165.728 29.7809 164.165C31.4842 162.602 32.7442 161.202 33.5609 159.965C34.3776 158.705 34.7859 157.468 34.7859 156.255C34.7859 155.042 34.4009 154.143 33.6309 153.56C32.8609 152.977 31.8809 152.685 30.6909 152.685C30.1309 152.685 29.5242 152.755 28.8709 152.895C28.2176 153.012 27.5409 153.187 26.8409 153.42L27.4009 152.58L26.7709 156.535H23.7959L23.4109 150.27C24.8576 149.827 26.2692 149.5 27.6459 149.29C29.0226 149.057 30.3176 148.94 31.5309 148.94C33.1876 148.94 34.6576 149.162 35.9409 149.605C37.2242 150.048 38.2276 150.76 38.9509 151.74C39.6742 152.72 40.0359 153.992 40.0359 155.555C40.0359 157.258 39.6042 158.892 38.7409 160.455C37.8776 162.018 36.6292 163.628 34.9959 165.285C33.3626 166.918 31.3792 168.703 29.0459 170.64V170.08H40.5609V174H23.2709ZM54.4616 160.035C54.4616 160.572 54.695 161.003 55.1616 161.33C55.6283 161.657 56.2233 161.937 56.9466 162.17C57.6933 162.403 58.475 162.648 59.2916 162.905C60.1316 163.162 60.9133 163.5 61.6366 163.92C62.3833 164.317 62.99 164.853 63.4566 165.53C63.9233 166.207 64.1566 167.082 64.1566 168.155C64.1566 169.532 63.7833 170.687 63.0366 171.62C62.29 172.553 61.275 173.253 59.9916 173.72C58.7083 174.187 57.2616 174.42 55.6516 174.42C54.7183 174.42 53.7266 174.338 52.6766 174.175C51.65 174.012 50.5883 173.79 49.4916 173.51L49.7016 168.225H52.7816L53.1666 171.305L52.7466 170.71C53.2133 170.85 53.7266 170.967 54.2866 171.06C54.8466 171.13 55.3366 171.165 55.7566 171.165C56.3633 171.165 56.9233 171.083 57.4366 170.92C57.9733 170.757 58.405 170.523 58.7316 170.22C59.0816 169.893 59.2566 169.485 59.2566 168.995C59.2566 168.435 59.0233 167.992 58.5566 167.665C58.09 167.338 57.4833 167.058 56.7366 166.825C56.0133 166.592 55.2433 166.347 54.4266 166.09C53.6333 165.833 52.8633 165.495 52.1166 165.075C51.3933 164.655 50.7983 164.095 50.3316 163.395C49.865 162.695 49.6316 161.785 49.6316 160.665C49.6316 159.312 49.97 158.215 50.6466 157.375C51.3233 156.512 52.2216 155.882 53.3416 155.485C54.485 155.088 55.7333 154.89 57.0866 154.89C58.0433 154.89 59.0583 154.983 60.1316 155.17C61.205 155.333 62.3016 155.578 63.4216 155.905L63.2466 160.595H60.1316L59.5716 157.83L60.2366 158.565C59.14 158.262 58.1716 158.11 57.3316 158.11C56.4683 158.11 55.7683 158.285 55.2316 158.635C54.7183 158.962 54.4616 159.428 54.4616 160.035ZM73.4724 174.42C71.909 174.42 70.6024 173.918 69.5524 172.915C68.5024 171.888 67.9774 170.348 67.9774 168.295V158.075L68.4324 158.775L65.6674 157.935V155.415L72.8774 155.17V167.49C72.8774 168.587 73.1224 169.403 73.6124 169.94C74.1024 170.453 74.7557 170.71 75.5724 170.71C76.2024 170.71 76.8907 170.547 77.6374 170.22C78.4074 169.87 79.1657 169.333 79.9124 168.61L79.5624 169.485V157.97L80.0174 158.775L77.2524 157.935V155.415L84.4624 155.17V171.41L83.8674 170.57L86.8074 171.48V173.965L80.6474 174.245L79.9824 170.815L80.6824 171.06C79.5157 172.18 78.3024 173.02 77.0424 173.58C75.8057 174.14 74.6157 174.42 73.4724 174.42ZM96.1125 174.42C95.2025 174.42 94.2225 174.362 93.1725 174.245C92.1225 174.128 90.9908 173.953 89.7775 173.72V149.15L90.5475 150.48L87.4325 149.57V147.05L94.6775 146.77V158.32L94.0825 157.585C94.9225 156.745 95.8441 156.092 96.8475 155.625C97.8508 155.135 98.9125 154.89 100.032 154.89C101.386 154.89 102.576 155.252 103.602 155.975C104.629 156.675 105.434 157.725 106.017 159.125C106.624 160.525 106.927 162.252 106.927 164.305C106.927 165.775 106.741 167.128 106.367 168.365C106.017 169.578 105.422 170.64 104.582 171.55C103.766 172.46 102.657 173.172 101.257 173.685C99.8808 174.175 98.1658 174.42 96.1125 174.42ZM96.9875 170.92C98.6675 170.92 99.8925 170.372 100.662 169.275C101.432 168.178 101.817 166.65 101.817 164.69C101.817 163.407 101.666 162.31 101.362 161.4C101.059 160.467 100.639 159.755 100.102 159.265C99.5658 158.752 98.9008 158.495 98.1075 158.495C97.5008 158.495 96.8591 158.658 96.1825 158.985C95.5058 159.312 94.8058 159.813 94.0825 160.49L94.6775 158.985V171.69L94.0825 170.5C95.1791 170.78 96.1475 170.92 96.9875 170.92ZM122.137 174.42C120.527 174.42 119.302 173.942 118.462 172.985C117.645 172.005 117.237 170.558 117.237 168.645V157.935L117.867 158.565H114.507V155.94L117.937 155.135L117.237 155.975V151.215L122.172 150.34V155.975L121.647 155.31H126.967L126.897 158.565H121.647L122.172 157.935V167.98C122.172 168.983 122.335 169.707 122.662 170.15C122.989 170.593 123.479 170.815 124.132 170.815C124.505 170.815 124.914 170.757 125.357 170.64C125.824 170.5 126.325 170.325 126.862 170.115L127.772 172.81C125.812 173.883 123.934 174.42 122.137 174.42ZM136.365 171.13L136.015 170.71L138.71 171.48V174H129.12V171.48L131.815 170.71L131.465 171.13V158.355L131.78 158.67L129.12 157.935V155.415L136.365 155.17V171.13ZM133.775 152.44C132.912 152.44 132.212 152.195 131.675 151.705C131.162 151.215 130.905 150.515 130.905 149.605C130.905 148.625 131.174 147.902 131.71 147.435C132.27 146.945 132.97 146.7 133.81 146.7C134.627 146.7 135.304 146.945 135.84 147.435C136.377 147.902 136.645 148.613 136.645 149.57C136.645 150.527 136.365 151.25 135.805 151.74C135.269 152.207 134.592 152.44 133.775 152.44ZM147.088 174.42C145.478 174.42 144.253 173.942 143.413 172.985C142.596 172.005 142.188 170.558 142.188 168.645V157.935L142.818 158.565H139.458V155.94L142.888 155.135L142.188 155.975V151.215L147.123 150.34V155.975L146.598 155.31H151.918L151.848 158.565H146.598L147.123 157.935V167.98C147.123 168.983 147.286 169.707 147.613 170.15C147.94 170.593 148.43 170.815 149.083 170.815C149.456 170.815 149.865 170.757 150.308 170.64C150.775 170.5 151.276 170.325 151.813 170.115L152.723 172.81C150.763 173.883 148.885 174.42 147.088 174.42ZM160.656 171.13L160.306 170.71L163.001 171.48V174H153.446V171.48L156.141 170.71L155.756 171.13V149.955L156.071 150.305L153.446 149.57V147.05L160.656 146.77V171.13ZM173.175 174.42C171.471 174.42 169.978 174.07 168.695 173.37C167.411 172.647 166.408 171.585 165.685 170.185C164.985 168.762 164.635 167.035 164.635 165.005C164.635 162.905 165.008 161.108 165.755 159.615C166.525 158.098 167.598 156.932 168.975 156.115C170.351 155.298 171.973 154.89 173.84 154.89C175.66 154.89 177.141 155.252 178.285 155.975C179.428 156.698 180.268 157.69 180.805 158.95C181.341 160.187 181.61 161.587 181.61 163.15C181.61 163.547 181.586 163.943 181.54 164.34C181.516 164.737 181.47 165.157 181.4 165.6H168.59V162.695H177.2L176.57 163.15C176.593 162.217 176.5 161.4 176.29 160.7C176.103 159.977 175.776 159.417 175.31 159.02C174.866 158.623 174.248 158.425 173.455 158.425C172.545 158.425 171.81 158.693 171.25 159.23C170.69 159.743 170.281 160.443 170.025 161.33C169.791 162.217 169.675 163.208 169.675 164.305C169.675 165.542 169.826 166.65 170.13 167.63C170.433 168.61 170.923 169.38 171.6 169.94C172.3 170.5 173.21 170.78 174.33 170.78C175.123 170.78 175.975 170.64 176.885 170.36C177.818 170.057 178.786 169.613 179.79 169.03L181.435 171.655C180.081 172.588 178.693 173.288 177.27 173.755C175.87 174.198 174.505 174.42 173.175 174.42Z" fill="black"/>
<path d="M353.616 23V22.244C356.626 19.248 358.32 17.456 358.32 15.818C358.32 14.684 357.704 13.872 356.43 13.872C355.59 13.872 354.862 14.404 354.302 15.062L353.56 14.348C354.4 13.438 355.282 12.836 356.584 12.836C358.418 12.836 359.566 13.998 359.566 15.762C359.566 17.638 357.858 19.5 355.492 21.992C356.024 21.95 356.64 21.894 357.172 21.894H360.07V23H353.616ZM361.382 23V22.244C364.392 19.248 366.086 17.456 366.086 15.818C366.086 14.684 365.47 13.872 364.196 13.872C363.356 13.872 362.628 14.404 362.068 15.062L361.326 14.348C362.166 13.438 363.048 12.836 364.35 12.836C366.184 12.836 367.332 13.998 367.332 15.762C367.332 17.638 365.624 19.5 363.258 21.992C363.79 21.95 364.406 21.894 364.938 21.894H367.836V23H361.382ZM370.477 23.182C369.973 23.182 369.553 22.79 369.553 22.216C369.553 21.628 369.973 21.222 370.477 21.222C370.981 21.222 371.401 21.628 371.401 22.216C371.401 22.79 370.981 23.182 370.477 23.182ZM374.038 19.22H377.188V16.294C377.188 15.776 377.23 14.922 377.258 14.39H377.202C376.95 14.866 376.67 15.3 376.376 15.79L374.038 19.22ZM377.188 23V20.242H372.708V19.402L376.978 13.018H378.392V19.22H379.75V20.242H378.392V23H377.188ZM381.481 26.206V15.398H382.531L382.643 16.266H382.685C383.371 15.706 384.225 15.202 385.107 15.202C387.067 15.202 388.131 16.742 388.131 19.08C388.131 21.684 386.577 23.182 384.827 23.182C384.141 23.182 383.413 22.86 382.727 22.3L382.755 23.63V26.206H381.481ZM384.617 22.118C385.877 22.118 386.801 20.984 386.801 19.094C386.801 17.414 386.241 16.28 384.799 16.28C384.155 16.28 383.497 16.644 382.755 17.33V21.32C383.441 21.908 384.113 22.118 384.617 22.118ZM388.825 23L391.331 19.038L389.021 15.398H390.393L391.415 17.064C391.653 17.498 391.919 17.918 392.171 18.338H392.227C392.465 17.918 392.689 17.498 392.913 17.064L393.851 15.398H395.181L392.871 19.164L395.377 23H393.977L392.857 21.222C392.605 20.76 392.325 20.298 392.045 19.864H391.975C391.709 20.298 391.457 20.76 391.191 21.222L390.169 23H388.825ZM400.007 23V15.398H401.057L401.169 16.504H401.211C401.869 15.776 402.667 15.202 403.577 15.202C404.739 15.202 405.369 15.762 405.677 16.658C406.461 15.804 407.259 15.202 408.183 15.202C409.751 15.202 410.493 16.238 410.493 18.184V23H409.219V18.352C409.219 16.924 408.771 16.322 407.805 16.322C407.217 16.322 406.601 16.7 405.887 17.484V23H404.613V18.352C404.613 16.924 404.165 16.322 403.199 16.322C402.625 16.322 401.981 16.7 401.281 17.484V23H400.007ZM416.034 23.182C414.018 23.182 412.394 21.712 412.394 19.206C412.394 16.742 414.06 15.202 415.824 15.202C417.756 15.202 418.848 16.602 418.848 18.772C418.848 19.052 418.82 19.318 418.792 19.5H413.668C413.752 21.124 414.746 22.16 416.188 22.16C416.93 22.16 417.532 21.936 418.092 21.558L418.554 22.398C417.882 22.832 417.07 23.182 416.034 23.182ZM413.654 18.576H417.728C417.728 17.05 417.028 16.224 415.838 16.224C414.76 16.224 413.808 17.092 413.654 18.576ZM423.31 23.182C421.406 23.182 420.174 21.74 420.174 19.206C420.174 16.742 421.728 15.202 423.464 15.202C424.36 15.202 424.934 15.538 425.606 16.098L425.55 14.782V11.856H426.81V23H425.774L425.662 22.104H425.62C425.018 22.692 424.22 23.182 423.31 23.182ZM423.59 22.118C424.29 22.118 424.906 21.768 425.55 21.068V17.078C424.892 16.504 424.318 16.28 423.688 16.28C422.456 16.28 421.49 17.456 421.49 19.192C421.49 21.026 422.246 22.118 423.59 22.118ZM429.401 23V15.398H430.675V23H429.401ZM430.045 13.83C429.541 13.83 429.191 13.494 429.191 12.976C429.191 12.486 429.541 12.15 430.045 12.15C430.549 12.15 430.899 12.486 430.899 12.976C430.899 13.494 430.549 13.83 430.045 13.83ZM435.469 23.182C433.873 23.182 433.159 22.146 433.159 20.214V15.398H434.433V20.06C434.433 21.474 434.853 22.076 435.861 22.076C436.645 22.076 437.191 21.698 437.919 20.788V15.398H439.193V23H438.129L438.031 21.81H437.989C437.275 22.636 436.519 23.182 435.469 23.182ZM441.761 23V15.398H442.811L442.923 16.504H442.965C443.623 15.776 444.421 15.202 445.331 15.202C446.493 15.202 447.123 15.762 447.431 16.658C448.215 15.804 449.013 15.202 449.937 15.202C451.505 15.202 452.247 16.238 452.247 18.184V23H450.973V18.352C450.973 16.924 450.525 16.322 449.559 16.322C448.971 16.322 448.355 16.7 447.641 17.484V23H446.367V18.352C446.367 16.924 445.919 16.322 444.953 16.322C444.379 16.322 443.735 16.7 443.035 17.484V23H441.761Z" fill="black"/>
<path d="M1.2768 24V8.9024H4.3008V14.2784C4.73387 13.9499 5.264 13.6811 5.8912 13.472C6.5184 13.2629 7.19787 13.1584 7.9296 13.1584C9.33333 13.1584 10.3563 13.4869 10.9984 14.144C11.6405 14.8011 11.9616 15.8165 11.9616 17.1904V24H8.9376V17.3472C8.9376 16.6304 8.78827 16.1227 8.4896 15.824C8.20587 15.5253 7.66827 15.376 6.8768 15.376C6.41387 15.376 5.94347 15.4805 5.4656 15.6896C5.00267 15.8987 4.6144 16.16 4.3008 16.4736V24H1.2768ZM19.6065 24.224C17.7697 24.224 16.3137 23.7685 15.2385 22.8576C14.1633 21.9317 13.6257 20.5355 13.6257 18.6688C13.6257 16.9813 14.0737 15.6448 14.9697 14.6592C15.8806 13.6587 17.2321 13.1584 19.0241 13.1584C20.6667 13.1584 21.9211 13.5915 22.7873 14.4576C23.6683 15.3088 24.1089 16.4288 24.1089 17.8176V19.744H16.4257C16.5899 20.5952 16.9782 21.1776 17.5905 21.4912C18.2177 21.8048 19.0987 21.9616 20.2337 21.9616C20.8011 21.9616 21.3761 21.9093 21.9585 21.8048C22.5558 21.7003 23.0635 21.5659 23.4817 21.4016V23.552C22.9889 23.776 22.4139 23.9403 21.7569 24.0448C21.0998 24.1643 20.383 24.224 19.6065 24.224ZM16.4257 17.8848H21.4657V17.3024C21.4657 16.6901 21.2865 16.2123 20.9281 15.8688C20.5697 15.5104 19.9649 15.3312 19.1137 15.3312C18.1131 15.3312 17.4113 15.5328 17.0081 15.936C16.6198 16.3392 16.4257 16.9888 16.4257 17.8848ZM29.5519 24.224C28.8799 24.224 28.2527 24.1045 27.6703 23.8656C27.1028 23.6117 26.6399 23.2459 26.2815 22.768C25.938 22.2752 25.7663 21.6629 25.7663 20.9312C25.7663 19.8859 26.1322 19.0496 26.8639 18.4224C27.6106 17.7952 28.7082 17.4816 30.1567 17.4816H33.2927V17.1904C33.2927 16.5333 33.106 16.0704 32.7327 15.8016C32.3743 15.5328 31.6426 15.3984 30.5375 15.3984C29.3279 15.3984 28.1631 15.5851 27.0431 15.9584V13.8304C27.5359 13.6363 28.1332 13.4795 28.8351 13.36C29.5519 13.2256 30.3284 13.1584 31.1647 13.1584C32.7626 13.1584 33.9946 13.4869 34.8607 14.144C35.7418 14.7861 36.1823 15.824 36.1823 17.2576V24H33.5615L33.4047 23.0368C32.9866 23.4101 32.4714 23.7013 31.8591 23.9104C31.2468 24.1195 30.4778 24.224 29.5519 24.224ZM30.3807 22.2304C31.0527 22.2304 31.6351 22.1184 32.1279 21.8944C32.6207 21.6704 33.009 21.3867 33.2927 21.0432V19.3632H30.2239C29.0442 19.3632 28.4543 19.8485 28.4543 20.8192C28.4543 21.76 29.0964 22.2304 30.3807 22.2304ZM43.0526 24.224C42.1118 24.224 41.2681 24.0597 40.5214 23.7312C39.7897 23.3877 39.2148 22.8352 38.7966 22.0736C38.3785 21.2971 38.1694 20.2741 38.1694 19.0048C38.1694 17.7355 38.4009 16.6677 38.8638 15.8016C39.3268 14.9355 39.9465 14.2784 40.723 13.8304C41.4996 13.3824 42.3508 13.1584 43.2766 13.1584C44.4414 13.1584 45.4345 13.4272 46.2558 13.9648V8.9024H49.2798V24H46.6814L46.5022 23.0144C46.0393 23.4176 45.5316 23.7237 44.979 23.9328C44.4414 24.1269 43.7993 24.224 43.0526 24.224ZM43.8814 22.0064C44.8222 22.0064 45.6137 21.6853 46.2558 21.0432V16.2048C45.6286 15.6523 44.8969 15.376 44.0606 15.376C42.179 15.376 41.2382 16.5856 41.2382 19.0048C41.2382 20.1397 41.4697 20.9237 41.9326 21.3568C42.3956 21.7899 43.0452 22.0064 43.8814 22.0064ZM57.144 24.224C55.3072 24.224 53.8512 23.7685 52.776 22.8576C51.7008 21.9317 51.1632 20.5355 51.1632 18.6688C51.1632 16.9813 51.6112 15.6448 52.5072 14.6592C53.4181 13.6587 54.7696 13.1584 56.5616 13.1584C58.2042 13.1584 59.4586 13.5915 60.3248 14.4576C61.2058 15.3088 61.6464 16.4288 61.6464 17.8176V19.744H53.9632C54.1274 20.5952 54.5157 21.1776 55.128 21.4912C55.7552 21.8048 56.6362 21.9616 57.7712 21.9616C58.3386 21.9616 58.9136 21.9093 59.496 21.8048C60.0933 21.7003 60.601 21.5659 61.0192 21.4016V23.552C60.5264 23.776 59.9514 23.9403 59.2944 24.0448C58.6373 24.1643 57.9205 24.224 57.144 24.224ZM53.9632 17.8848H59.0032V17.3024C59.0032 16.6901 58.824 16.2123 58.4656 15.8688C58.1072 15.5104 57.5024 15.3312 56.6512 15.3312C55.6506 15.3312 54.9488 15.5328 54.5456 15.936C54.1573 16.3392 53.9632 16.9888 53.9632 17.8848ZM63.7518 24V13.3824H66.5518L66.6862 14.48C67.1641 14.1813 67.7539 13.9125 68.4558 13.6736C69.1726 13.4197 69.8745 13.248 70.5614 13.1584V15.4432C70.1582 15.5029 69.7177 15.5925 69.2398 15.712C68.7619 15.8315 68.3065 15.9659 67.8734 16.1152C67.4403 16.2645 67.0745 16.4213 66.7758 16.5856V24H63.7518ZM77.0299 24V13.3824H79.8299L79.9419 14.4128C80.4497 14.0245 81.0022 13.7184 81.5995 13.4944C82.2118 13.2704 82.8689 13.1584 83.5707 13.1584C84.3174 13.1584 84.8923 13.2704 85.2955 13.4944C85.7137 13.7184 86.0347 14.0395 86.2587 14.4576C86.7515 14.0693 87.3115 13.7557 87.9387 13.5168C88.5809 13.2779 89.335 13.1584 90.2011 13.1584C91.4257 13.1584 92.3291 13.4795 92.9115 14.1216C93.4939 14.7488 93.7851 15.712 93.7851 17.0112V24H90.8059V17.3472C90.8059 16.6453 90.6566 16.1451 90.3579 15.8464C90.0593 15.5328 89.5814 15.376 88.9243 15.376C88.0283 15.376 87.2817 15.6971 86.6843 16.3392C86.759 16.5931 86.7963 16.8992 86.7963 17.2576V24H83.9739V17.3472C83.9739 16.6901 83.8619 16.1973 83.6379 15.8688C83.4139 15.5403 82.9809 15.376 82.3387 15.376C81.8907 15.376 81.4651 15.4955 81.0619 15.7344C80.6737 15.9584 80.3227 16.2197 80.0091 16.5184V24H77.0299ZM101.441 24.224C99.604 24.224 98.148 23.7685 97.0728 22.8576C95.9976 21.9317 95.46 20.5355 95.46 18.6688C95.46 16.9813 95.908 15.6448 96.804 14.6592C97.715 13.6587 99.0664 13.1584 100.858 13.1584C102.501 13.1584 103.756 13.5915 104.622 14.4576C105.503 15.3088 105.943 16.4288 105.943 17.8176V19.744H98.26C98.4243 20.5952 98.8126 21.1776 99.4248 21.4912C100.052 21.8048 100.933 21.9616 102.068 21.9616C102.636 21.9616 103.21 21.9093 103.793 21.8048C104.39 21.7003 104.898 21.5659 105.316 21.4016V23.552C104.823 23.776 104.248 23.9403 103.591 24.0448C102.934 24.1643 102.217 24.224 101.441 24.224ZM98.26 17.8848H103.3V17.3024C103.3 16.6901 103.121 16.2123 102.762 15.8688C102.404 15.5104 101.799 15.3312 100.948 15.3312C99.9475 15.3312 99.2456 15.5328 98.8424 15.936C98.4542 16.3392 98.26 16.9888 98.26 17.8848ZM108.049 24V13.3824H110.849L110.961 14.3904C111.394 14.0619 111.939 13.7781 112.596 13.5392C113.268 13.2853 113.97 13.1584 114.701 13.1584C116.105 13.1584 117.128 13.4869 117.77 14.144C118.412 14.8011 118.733 15.8165 118.733 17.1904V24H115.709V17.3472C115.709 16.6304 115.56 16.1227 115.261 15.824C114.978 15.5253 114.44 15.376 113.649 15.376C113.186 15.376 112.715 15.4805 112.237 15.6896C111.775 15.8987 111.386 16.16 111.073 16.4736V24H108.049ZM125.116 24.224C123.846 24.224 122.853 23.8731 122.136 23.1712C121.434 22.4544 121.084 21.4091 121.084 20.0352V13.3824H124.108V19.968C124.108 20.6848 124.279 21.2075 124.623 21.536C124.966 21.8496 125.481 22.0064 126.168 22.0064C126.691 22.0064 127.169 21.9019 127.602 21.6928C128.05 21.4837 128.431 21.2224 128.744 20.9088V13.3824H131.768V24H128.968L128.856 22.992C128.408 23.3504 127.878 23.6491 127.266 23.888C126.669 24.112 125.952 24.224 125.116 24.224Z" fill="black"/>
</svg>
